<svg height="512" viewBox="0 0 128 128" width="512" xmlns="http://www.w3.org/2000/svg"><g><g><path d="m77.938 36.253h-76.188v78.182h124.5v-81.485h-45.226z" fill="#fdf3f3"/><path d="m89.938 23.409h36.312v-4.844a5 5 0 0 0 -5-5h-114.5a5 5 0 0 0 -5 5v17.688h76.188z" fill="#435e81"/><path d="m89.938 23.409-8.914 9.541h45.226v-9.541z" fill="#374367"/><rect fill="#fdd82e" height="8.813" rx="4.406" width="13.75" x="9.75" y="20.503"/><rect fill="#9dcfff" height="8.813" rx="4.406" width="13.75" x="30.188" y="20.503"/><path d="m64 77.294-23.324-8.994v18.228a4.714 4.714 0 0 0 4.714 4.714h37.22a4.714 4.714 0 0 0 4.714-4.714v-18.228z" fill="#9dcfff"/><path d="m94.414 96.28a1.749 1.749 0 0 1 -1.75-1.75v-28.191a1.75 1.75 0 0 1 3.5 0v28.191a1.75 1.75 0 0 1 -1.75 1.75z" fill="#ebe4f0"/><path d="m101 101.045-6.586 3.293-6.587-3.293v-6.252h13.173z" fill="#9dcfff"/><path d="m75.038 51.376h-22.075l-21.567 6.149v7.199l32.604 12.57 32.604-12.57v-7.199z" fill="#435e81"/></g><g><path d="m121.25 11.813h-114.5a6.758 6.758 0 0 0 -6.75 6.75v95.869a1.751 1.751 0 0 0 1.75 1.75h13.85a1.75 1.75 0 1 0 0-3.5h-12.1v-74.682h74.438a1.773 1.773 0 0 0 .357-.037 1.753 1.753 0 0 0 .921-.518l2.568-2.745h42.716v77.985h-85.7a1.75 1.75 0 0 0 0 3.5h87.45a1.751 1.751 0 0 0 1.75-1.75v-95.872a6.758 6.758 0 0 0 -6.75-6.75zm-117.75 22.687v-15.937a3.254 3.254 0 0 1 3.25-3.25h114.5a3.254 3.254 0 0 1 3.25 3.25v3.093h-34.562a1.748 1.748 0 0 0 -1.279.556l-8.914 9.54-2.567 2.748zm81.554-3.3 5.646-6.044h33.8v6.044z"/><path d="m29.685 112.682h-4.971a1.75 1.75 0 0 0 0 3.5h4.971a1.75 1.75 0 0 0 0-3.5z"/><path d="m19.094 18.75h-4.938a6.157 6.157 0 0 0 0 12.313h4.938a6.157 6.157 0 0 0 0-12.313zm0 8.813h-4.938a2.657 2.657 0 0 1 0-5.313h4.938a2.657 2.657 0 0 1 0 5.313z"/><path d="m39.531 18.75h-4.937a6.157 6.157 0 0 0 0 12.313h4.937a6.157 6.157 0 1 0 0-12.313zm0 8.813h-4.937a2.657 2.657 0 0 1 0-5.313h4.937a2.657 2.657 0 1 1 0 5.313z"/><path d="m53.208 53.126h20.975a1.75 1.75 0 0 0 0-3.5h-21.22a1.733 1.733 0 0 0 -.48.067l-21.566 6.15a1.75 1.75 0 0 0 -1.271 1.682v7.2a1.75 1.75 0 0 0 1.121 1.632l8.159 3.143v17.027a6.471 6.471 0 0 0 6.464 6.464h37.22a6.471 6.471 0 0 0 6.464-6.464v-17.027l3.59-1.384v24.927h-4.837a1.75 1.75 0 0 0 -1.75 1.75v6.252a1.75 1.75 0 0 0 .967 1.565l6.587 3.294a1.747 1.747 0 0 0 1.565 0l6.587-3.294a1.75 1.75 0 0 0 .967-1.565v-6.252a1.75 1.75 0 0 0 -1.75-1.75h-4.836v-26.274l1.069-.413a1.75 1.75 0 0 0 1.121-1.632v-7.2a1.75 1.75 0 0 0 -1.271-1.682l-13.3-3.794a1.75 1.75 0 1 0 -.96 3.365l12.035 3.432v4.676l-8.158 3.147-22.7 8.75-30.854-11.9v-4.672zm46.042 46.838-4.836 2.418-4.837-2.418v-3.421h9.673zm-34.621-21.037 20.945-8.075v15.675a2.967 2.967 0 0 1 -2.964 2.964h-37.22a2.967 2.967 0 0 1 -2.964-2.964v-15.675l20.945 8.075a1.749 1.749 0 0 0 1.258 0z"/></g></g></svg>