<svg id="Layer_1" enable-background="new 0 0 128 128" height="512" viewBox="0 0 128 128" width="512" xmlns="http://www.w3.org/2000/svg"><g><g><path d="m24.2 59.4h79.6v39.5h-79.6z" fill="#fd4b4a"/><circle cx="64" cy="59.6" fill="#ffd92d" r="8.2"/></g><path d="m36.5 59.4c0-1 .8-1.7 1.8-1.8h.7c1 0 1.8.8 1.8 1.8s-.8 1.8-1.8 1.8h-.7c-1-.1-1.8-.9-1.8-1.8zm12.7 37.7h-23.3v-36h5.7c1 0 1.8-.8 1.8-1.8s-.8-1.8-1.8-1.8h-7.4c-1 0-1.7.8-1.8 1.8v39.5c0 1 .8 1.8 1.8 1.8h25c1 0 1.8-.8 1.8-1.8s-.9-1.7-1.8-1.7zm54.6-39.5h-26.1c-1 0-1.8.8-1.8 1.8s.8 1.8 1.8 1.8h24.3v36h-46.2c-1 0-1.8.8-1.8 1.8s.8 1.8 1.8 1.8h48c1 0 1.8-.8 1.8-1.8v-39.6c-.1-1-.8-1.8-1.8-1.8zm-58.3 30.3h-8.1v-13.3h-3.3v16h11.4zm9.6-13.4h-3.3v16.1h3.3zm14.9 16.1 5.8-16.1h-3.5l-3.9 11.9-4.1-11.9h-3.5l5.8 16.1zm23.6-13.4v-2.7h-12v16.1h12.3v-2.7h-9v-4.4h8.1v-2.7h-8.1v-3.6zm-22.6-10.6c-3.9 3.9-10.2 3.9-14 0-1.5-1.5-2.5-3.4-2.8-5.5h-8.8c-1 0-1.8-.8-1.8-1.8s.8-1.8 1.8-1.8h8.8c1.1-5.4 6.3-8.9 11.7-7.8s8.9 6.3 7.8 11.7c-.4 2.1-1.3 3.8-2.7 5.2zm-7-13.4c-3.6 0-6.4 2.9-6.4 6.4 0 3.6 2.9 6.4 6.4 6.4 4.3 0 6.4-3.7 6.4-6.4 0-3.6-2.8-6.4-6.4-6.4zm15-6.1c.7-.7.7-1.8 0-2.5-8.3-8.3-21.7-8.3-29.9 0-.7.7-.7 1.8 0 2.5s1.8.7 2.5 0c6.9-6.9 18.1-6.9 25 0 .6.7 1.7.7 2.4 0zm0-12c1.9 1.2 3.7 2.6 5.3 4.2.7.7 1.8.7 2.5 0s.7-1.8 0-2.5c-1.8-1.8-3.8-3.4-6-4.7-.8-.5-1.9-.2-2.4.6s-.2 1.8.6 2.4zm-5.6-2.7c.3.1.6.2 1 .3.9.4 1.9-.1 2.3-1s-.1-1.9-1-2.3c0 0 0 0-.1 0-.4-.1-.7-.3-1.1-.4-.9-.3-1.9.2-2.2 1.1-.2 1 .2 2 1.1 2.3zm-29.7 6.9c5.4-5.4 12.7-8.4 20.3-8.4 1.3 0 2.6.1 3.9.3 1 .1 1.8-.5 2-1.5.1-1-.5-1.8-1.5-2-1.5-.2-2.9-.3-4.4-.3-8.6 0-16.8 3.4-22.8 9.5-.7.7-.7 1.8 0 2.5 1 .8 2.1.2 2.5-.1z" fill="#001c5b"/></g></svg>