<?xml version="1.0" encoding="UTF-8"?>
<svg xmlns="http://www.w3.org/2000/svg" width="512" height="512" viewBox="0 0 128 128"><g><g><path d="M99.009,126.247H28.991v-7a6,6,0,0,1,6-6H93.009a6,6,0,0,1,6,6Z" fill="#667197"/><path d="M98.687,38.745h-9v10h9a1,1,0,0,1,1,1V65.311a25.028,25.028,0,0,1-25,25H53.312a25.028,25.028,0,0,1-25-25V49.745a1,1,0,0,1,1-1h9v-10h-9a11.012,11.012,0,0,0-11,11V65.311a35.04,35.04,0,0,0,35,35H59v12.934H69V100.311h5.687a35.04,35.04,0,0,0,35-35V49.745A11.012,11.012,0,0,0,98.687,38.745Z" fill="#dfe5f2"/><path d="M38.312,65.311a15,15,0,0,0,15,15H74.687a15,15,0,0,0,15-15V43.745H38.312Z" fill="#667197"/><path d="M66.405,1.747H61.6A23.283,23.283,0,0,0,38.312,25.03V43.745H89.687V25.03A23.283,23.283,0,0,0,66.405,1.747Z" fill="#7fa6fb"/><circle cx="64" cy="62.028" r="5" fill="#80cbc4"/><path d="M89.687,34.737H74.343a4,4,0,0,1-4-4h0a4,4,0,0,1,4-4H89.687Z" fill="#4080ff"/><path d="M84.773,10.731H74.343a4,4,0,1,0,0,8H88.818A23.213,23.213,0,0,0,84.773,10.731Z" fill="#4080ff"/><path d="M38.312,34.737H53.657a4,4,0,0,0,4-4h0a4,4,0,0,0-4-4H38.312Z" fill="#4080ff"/><path d="M43.227,10.731h10.43a4,4,0,0,1,0,8H39.182A23.213,23.213,0,0,1,43.227,10.731Z" fill="#4080ff"/></g><g><path d="M96.685,90.224A1.75,1.75,0,1,0,99,92.846a36.784,36.784,0,0,0,12.434-27.535V49.745a12.764,12.764,0,0,0-12.75-12.75h-7.25V25.03A24.9,24.9,0,0,0,86.243,9.789a1.787,1.787,0,0,0-.209-.266A24.994,24.994,0,0,0,66.4,0H61.6A25,25,0,0,0,41.965,9.523a1.78,1.78,0,0,0-.208.266A24.9,24.9,0,0,0,36.562,25.03V36.995h-7.25a12.764,12.764,0,0,0-12.75,12.75V65.311a36.792,36.792,0,0,0,36.75,36.75H57.25V111.5H34.991a7.759,7.759,0,0,0-7.75,7.75v7a1.75,1.75,0,0,0,1.75,1.75H99.009a1.75,1.75,0,0,0,1.75-1.75v-7a7.759,7.759,0,0,0-7.75-7.75H70.75v-9.434h3.937a1.75,1.75,0,0,0,0-3.5H69a1.75,1.75,0,0,0-1.75,1.75V111.5h-6.5V100.311A1.75,1.75,0,0,0,59,98.561H53.312a33.288,33.288,0,0,1-33.25-33.25V49.745a9.26,9.26,0,0,1,9.25-9.25h7.25V47h-7.25a2.754,2.754,0,0,0-2.75,2.75V65.311a26.78,26.78,0,0,0,26.75,26.75H74.687a26.78,26.78,0,0,0,26.75-26.75V49.745A2.753,2.753,0,0,0,98.687,47h-7.25v-6.5h7.25a9.26,9.26,0,0,1,9.25,9.25V65.311A33.284,33.284,0,0,1,96.685,90.224ZM69,115H93.009a4.255,4.255,0,0,1,4.25,4.25V124.5H30.741v-5.252a4.254,4.254,0,0,1,4.25-4.25H69ZM53.657,28.487a2.25,2.25,0,0,1,0,4.5H40.062v-4.5ZM40.062,48.745V45.5H87.937V65.311a13.265,13.265,0,0,1-13.25,13.25H53.312a13.266,13.266,0,0,1-13.25-13.25ZM87.937,32.987H74.343a2.25,2.25,0,1,1,0-4.5H87.937ZM66.4,3.5A21.422,21.422,0,0,1,80.71,8.981H74.344a5.756,5.756,0,0,0-5.75,5.75,1.75,1.75,0,1,0,3.5,0,2.252,2.252,0,0,1,2.25-2.25h9.523a21.482,21.482,0,0,1,2.495,4.5h-8.8a1.75,1.75,0,0,0,0,3.5h9.886a21.517,21.517,0,0,1,.491,4.506H74.343a5.75,5.75,0,1,0,0,11.5H87.937V42H40.062V36.487h13.6a5.75,5.75,0,0,0,0-11.5H40.065a21.517,21.517,0,0,1,.491-4.506h13.1a5.75,5.75,0,0,0,0-11.5H47.29A21.422,21.422,0,0,1,61.6,3.5ZM44.133,12.481h9.523a2.25,2.25,0,0,1,0,4.5H41.638A21.482,21.482,0,0,1,44.133,12.481ZM97.937,50.5V65.311a23.276,23.276,0,0,1-23.25,23.25H53.312a23.276,23.276,0,0,1-23.25-23.25V50.5h6.5V65.311a16.769,16.769,0,0,0,16.75,16.75H74.687a16.768,16.768,0,0,0,16.75-16.75V50.5Z"/><path d="M88.293,95.649a33.022,33.022,0,0,1-3.719,1.412,1.75,1.75,0,1,0,1.043,3.341A36.685,36.685,0,0,0,89.73,98.84a1.75,1.75,0,0,0-1.437-3.191Z"/><path d="M64,68.778a6.75,6.75,0,1,0-6.75-6.75A6.758,6.758,0,0,0,64,68.778Zm0-10a3.25,3.25,0,1,1-3.25,3.25A3.254,3.254,0,0,1,64,58.778Z"/></g></g></svg>
