<?xml version="1.0" standalone="no"?>
<!DOCTYPE svg PUBLIC "-//W3C//DTD SVG 20010904//EN"
 "http://www.w3.org/TR/2001/REC-SVG-20010904/DTD/svg10.dtd">
<svg version="1.0" xmlns="http://www.w3.org/2000/svg"
 width="512.000000pt" height="512.000000pt" viewBox="0 0 512.000000 512.000000"
 preserveAspectRatio="xMidYMid meet">

<g transform="translate(0.000000,512.000000) scale(0.100000,-0.100000)"
fill="#000000" stroke="none">
<path d="M43 4230 c-12 -5 -26 -18 -32 -29 -8 -14 -11 -373 -11 -1163 1 -1234
-2 -1166 54 -1188 18 -6 292 -10 807 -10 l779 0 312 -467 c222 -332 321 -472
341 -481 22 -11 32 -11 55 0 19 9 117 148 338 478 l311 465 595 5 c578 5 597
6 618 25 27 24 882 1111 898 1142 7 12 12 30 12 41 0 24 -893 1163 -926 1180
-19 10 -100 12 -358 10 -312 -3 -335 -4 -355 -22 -29 -26 -28 -76 2 -104 23
-22 29 -22 333 -22 l309 0 410 -522 c226 -287 409 -526 407 -531 -1 -5 -186
-242 -410 -528 l-407 -519 -593 0 c-343 0 -601 -4 -611 -9 -9 -5 -147 -205
-306 -445 -160 -239 -293 -436 -296 -436 -3 0 -134 192 -290 427 -156 234
-293 435 -303 445 -19 17 -58 18 -798 18 l-778 0 0 1050 0 1050 1520 0 c1507
0 1520 0 1540 20 33 33 30 75 -6 108 l-25 22 -1557 -1 c-872 0 -1567 -4 -1579
-9z"/>
<path d="M449 3429 c-47 -17 -49 -37 -49 -393 0 -322 1 -334 21 -360 27 -34
79 -36 109 -4 18 20 20 35 20 160 l0 138 100 0 c89 0 101 2 120 22 11 12 20
32 20 46 0 61 -42 82 -161 82 l-79 0 0 85 0 85 138 0 c132 0 140 1 160 23 39
41 25 97 -29 116 -39 13 -333 13 -370 0z"/>
<path d="M1230 3431 c-59 -12 -107 -40 -155 -92 -221 -236 -88 -689 201 -689
94 0 165 37 228 120 157 205 89 557 -125 643 -45 19 -106 26 -149 18z m114
-170 c48 -27 88 -111 94 -195 5 -83 -7 -135 -45 -193 -36 -55 -78 -78 -133
-70 -151 20 -199 318 -71 441 49 47 94 52 155 17z"/>
<path d="M1810 3427 c-49 -25 -50 -37 -48 -398 3 -315 4 -338 22 -358 18 -20
29 -21 213 -21 180 0 194 1 213 20 25 25 26 71 1 101 -18 23 -26 24 -160 27
l-141 4 0 297 c0 271 -2 299 -17 313 -27 24 -55 29 -83 15z"/>
<path d="M2375 3430 c-50 -20 -50 -20 -50 -390 0 -328 1 -349 19 -369 18 -20
29 -21 216 -21 221 0 230 3 230 72 0 63 -22 72 -181 76 l-139 4 0 297 c0 271
-2 299 -17 313 -24 21 -54 28 -78 18z"/>
<path d="M3151 3429 c-236 -44 -343 -402 -190 -640 58 -90 143 -139 243 -139
176 1 308 168 308 390 0 245 -167 424 -361 389z m84 -149 c8 0 30 -13 48 -30
83 -72 107 -238 51 -348 -64 -123 -176 -137 -249 -30 -47 69 -59 192 -29 283
27 77 103 142 152 129 8 -2 20 -4 27 -4z"/>
<path d="M3663 3433 c-28 -5 -53 -39 -53 -70 0 -13 37 -170 82 -350 55 -219
87 -332 100 -345 24 -24 80 -24 102 1 9 10 40 78 70 150 l53 132 86 -144 c48
-80 94 -147 103 -151 8 -3 28 -6 44 -6 57 0 62 18 108 385 39 308 41 340 27
361 -23 36 -48 45 -84 33 -17 -6 -36 -19 -41 -29 -5 -9 -21 -109 -35 -221 -14
-112 -26 -211 -28 -219 -1 -8 -30 33 -65 91 -72 122 -91 142 -132 142 -43 0
-55 -15 -96 -119 -21 -52 -40 -94 -44 -94 -3 0 -28 91 -55 203 -41 168 -54
207 -77 230 -14 15 -30 26 -35 26 -4 -1 -18 -4 -30 -6z"/>
<path d="M661 1644 c-24 -31 -26 -43 -9 -79 20 -43 53 -46 491 -43 l409 3 19
24 c25 30 24 76 -1 101 -19 19 -33 20 -454 20 l-435 0 -20 -26z"/>
<path d="M828 1333 c-38 -43 -28 -102 21 -123 18 -7 157 -10 443 -8 393 3 417
4 437 22 27 25 28 79 1 106 -19 19 -33 20 -453 20 -401 0 -435 -1 -449 -17z"/>
<path d="M997 1019 c-46 -27 -41 -105 9 -128 17 -8 163 -11 478 -11 443 0 454
0 480 21 34 27 36 79 4 109 -21 20 -32 20 -487 20 -307 -1 -472 -4 -484 -11z"/>
</g>
</svg>
