<?xml version="1.0" standalone="no"?>
<!DOCTYPE svg PUBLIC "-//W3C//DTD SVG 20010904//EN"
 "http://www.w3.org/TR/2001/REC-SVG-20010904/DTD/svg10.dtd">
<svg version="1.0" xmlns="http://www.w3.org/2000/svg"
 width="568.000000pt" height="190.000000pt" viewBox="0 0 568.000000 190.000000"
 preserveAspectRatio="xMidYMid meet">

<g transform="translate(0.000000,190.000000) scale(0.100000,-0.100000)"
fill="#000000" stroke="none">
<path d="M568 1418 l-3 -123 -122 -3 -123 -3 0 -44 0 -45 170 0 170 0 0 170 0
170 -45 0 -44 0 -3 -122z"/>
<path d="M706 1532 c-8 -13 14 -105 36 -151 45 -93 151 -169 251 -179 l47 -5
0 46 c0 44 -1 45 -37 52 -50 9 -102 37 -135 72 -33 35 -67 109 -68 146 0 25
-3 27 -44 27 -25 0 -47 -3 -50 -8z"/>
<path d="M1160 1370 l0 -170 30 0 30 0 0 70 0 70 80 0 80 0 0 -70 0 -70 30 0
30 0 0 170 0 170 -30 0 -30 0 0 -75 0 -75 -80 0 -80 0 0 75 0 75 -30 0 -30 0
0 -170z"/>
<path d="M2330 1510 c0 -27 3 -30 30 -30 27 0 30 3 30 30 0 27 -3 30 -30 30
-27 0 -30 -3 -30 -30z"/>
<path d="M2900 1370 l0 -170 25 0 25 0 0 170 0 170 -25 0 -25 0 0 -170z"/>
<path d="M3300 1480 c0 -33 -2 -60 -3 -60 -2 0 -19 7 -37 16 -26 14 -39 14
-69 5 -57 -17 -74 -42 -79 -115 -4 -56 -1 -65 23 -94 34 -41 87 -52 129 -28
20 11 32 14 34 7 2 -6 15 -11 28 -11 l24 0 0 170 0 170 -25 0 c-24 0 -25 -3
-25 -60z m-25 -100 c24 -27 25 -93 1 -119 -19 -21 -61 -28 -82 -13 -6 4 -16
17 -23 29 -40 76 48 165 104 103z"/>
<path d="M3690 1370 l0 -170 30 0 30 0 0 170 0 170 -30 0 -30 0 0 -170z"/>
<path d="M3920 1371 l0 -171 25 0 24 0 3 133 3 132 45 -132 c45 -132 45 -133
76 -133 31 0 31 1 77 133 l46 132 0 -132 1 -133 30 0 30 0 -2 168 -3 167 -41
3 -42 3 -48 -143 -47 -143 -47 140 -47 140 -41 3 -42 3 0 -170z"/>
<path d="M2488 1504 c-19 -10 -28 -23 -28 -39 0 -18 -5 -25 -20 -25 -14 0 -20
-7 -20 -21 0 -12 8 -23 20 -26 18 -5 20 -14 20 -78 0 -58 4 -77 21 -99 23 -29
64 -35 95 -12 22 17 12 33 -26 38 -24 3 -25 7 -28 76 l-3 72 31 0 c25 0 30 4
30 25 0 21 -5 25 -29 25 -27 0 -30 3 -33 39 l-3 39 -27 -14z"/>
<path d="M1574 1436 c-69 -31 -95 -116 -58 -187 16 -31 66 -59 105 -59 89 0
147 99 110 188 -23 56 -99 84 -157 58z m95 -62 c12 -15 21 -39 21 -54 0 -40
-35 -80 -70 -80 -35 0 -70 40 -70 80 0 40 35 80 70 80 19 0 36 -9 49 -26z"/>
<path d="M1840 1437 c-23 -8 -38 -21 -44 -40 -16 -43 9 -78 67 -98 64 -21 78
-36 52 -55 -23 -17 -64 -11 -81 12 -12 16 -40 19 -48 5 -11 -17 35 -60 69 -67
68 -12 125 21 125 74 0 38 -26 60 -86 75 -38 9 -49 16 -49 32 0 25 55 34 74
12 15 -19 54 -10 47 10 -3 8 -6 16 -6 19 0 6 -59 34 -72 33 -7 0 -29 -5 -48
-12z"/>
<path d="M2123 1435 c-18 -8 -33 -10 -33 -5 0 6 -13 10 -30 10 l-30 0 0 -170
0 -170 30 0 c30 0 30 0 30 59 l0 60 28 -15 c40 -21 77 -17 111 12 108 90 18
275 -106 219z m77 -55 c45 -45 14 -140 -45 -140 -38 0 -65 33 -65 80 0 47 27
80 65 80 14 0 34 -9 45 -20z"/>
<path d="M2695 1443 c-28 -7 -65 -43 -65 -64 0 -28 28 -30 54 -4 31 31 60 32
80 3 20 -28 15 -34 -38 -42 -88 -13 -122 -71 -71 -121 28 -29 70 -32 103 -9
12 8 22 10 22 5 0 -6 11 -11 25 -11 25 0 25 1 25 91 0 103 -8 125 -55 145 -35
14 -45 15 -80 7z m81 -168 c-12 -47 -86 -60 -86 -16 0 23 11 32 54 41 38 8 40
7 32 -25z"/>
<path d="M3473 1436 c-17 -8 -39 -28 -47 -45 -23 -44 -21 -122 4 -154 41 -52
135 -59 179 -13 19 20 20 24 6 36 -13 11 -19 10 -33 -4 -38 -34 -122 -7 -122
39 0 12 17 15 90 15 99 0 102 2 76 63 -27 65 -90 91 -153 63z m91 -52 c31 -31
20 -44 -38 -44 -62 0 -72 7 -50 38 18 26 65 29 88 6z"/>
<path d="M4403 1443 c-24 -5 -63 -47 -63 -68 0 -25 30 -24 54 0 30 30 57 32
80 6 24 -27 15 -37 -40 -46 -52 -7 -94 -41 -94 -75 0 -30 44 -70 77 -70 16 0
39 7 51 16 12 8 22 10 22 5 0 -6 11 -11 25 -11 25 0 25 1 25 91 0 103 -8 125
-55 145 -35 14 -42 15 -82 7z m83 -168 c-12 -47 -86 -60 -86 -16 0 23 11 32
54 41 38 8 40 7 32 -25z"/>
<path d="M2330 1320 l0 -120 30 0 30 0 0 120 0 120 -30 0 -30 0 0 -120z"/>
<path d="M4610 1320 l0 -120 25 0 c24 0 25 2 25 73 0 82 16 117 54 117 22 0
36 16 36 41 0 15 -52 10 -72 -8 -17 -15 -18 -15 -18 0 0 11 -8 17 -25 17 l-25
0 0 -120z"/>
<path d="M320 1111 c0 -50 1 -51 30 -51 17 0 52 -11 79 -25 76 -38 131 -116
131 -185 0 -29 1 -30 51 -30 l52 0 -7 52 c-9 65 -58 159 -105 200 -45 39 -122
75 -183 83 l-48 7 0 -51z"/>
<path d="M700 990 l0 -170 50 0 50 0 0 120 0 120 120 0 120 0 0 50 0 50 -170
0 -170 0 0 -170z"/>
<path d="M4190 1040 c0 -25 4 -30 25 -30 21 0 25 5 25 30 0 25 -4 30 -25 30
-21 0 -25 -5 -25 -30z"/>
<path d="M5297 1063 c-4 -3 -7 -55 -7 -115 l0 -108 65 0 65 0 0 115 0 115 -58
0 c-32 0 -62 -3 -65 -7z m84 -33 c21 -12 25 -40 8 -57 -8 -8 -8 -17 0 -32 16
-30 -11 -29 -32 2 l-16 22 0 -22 c-1 -14 -7 -23 -16 -23 -11 0 -15 13 -15 53
0 30 3 57 7 60 10 10 42 8 64 -3z"/>
<path d="M5340 994 c0 -17 22 -14 28 4 2 7 -3 12 -12 12 -9 0 -16 -7 -16 -16z"/>
<path d="M1160 890 l0 -170 30 0 30 0 0 70 0 70 39 0 c52 0 79 -24 95 -85 11
-44 16 -50 40 -53 28 -3 28 -3 22 35 -12 64 -26 101 -43 107 -14 6 -12 11 9
34 14 15 29 37 32 49 9 28 -16 88 -42 102 -12 6 -64 11 -116 11 l-96 0 0 -170z
m184 104 c9 -8 16 -24 16 -34 0 -34 -28 -50 -86 -50 l-54 0 0 50 0 50 54 0
c36 0 60 -5 70 -16z"/>
<path d="M2960 890 l0 -170 30 0 30 0 0 83 c0 88 3 98 37 116 29 15 39 14 57
-5 12 -12 16 -37 16 -105 l0 -90 28 3 27 3 0 97 c0 88 -2 99 -24 122 -29 30
-84 35 -119 10 l-22 -15 0 60 0 61 -30 0 -30 0 0 -170z"/>
<path d="M3350 890 l0 -170 30 0 30 0 0 170 0 170 -30 0 -30 0 0 -170z"/>
<path d="M4033 1033 c-7 -2 -13 -18 -13 -34 0 -22 -5 -29 -20 -29 -15 0 -20
-7 -20 -25 0 -18 5 -25 20 -25 18 0 20 -7 20 -83 0 -94 13 -117 66 -117 40 0
71 22 52 37 -7 6 -24 13 -38 15 -24 3 -25 7 -28 76 l-3 72 36 0 c31 0 35 3 35
25 0 22 -4 25 -35 25 -33 0 -35 2 -35 35 0 34 -8 40 -37 28z"/>
<path d="M4338 1029 c-10 -5 -18 -21 -18 -34 0 -18 -5 -25 -20 -25 -15 0 -20
-7 -20 -25 0 -18 5 -25 20 -25 18 0 20 -7 20 -80 0 -67 3 -83 20 -100 24 -24
82 -27 100 -5 17 20 4 35 -31 35 l-29 0 0 75 0 75 30 0 c25 0 30 4 30 25 0 21
-5 25 -30 25 -28 0 -30 3 -30 35 0 37 -11 43 -42 24z"/>
<path d="M4808 1033 c-12 -3 -18 -14 -18 -34 0 -22 -5 -29 -20 -29 -15 0 -20
-7 -20 -25 0 -18 5 -25 20 -25 18 0 20 -7 20 -78 0 -97 14 -122 69 -122 43 0
68 19 49 38 -7 7 -22 12 -34 12 -28 0 -34 17 -34 91 l0 59 35 0 c31 0 35 3 35
25 0 22 -4 25 -35 25 -33 0 -35 2 -35 35 0 19 -3 34 -7 34 -5 -1 -16 -3 -25
-6z"/>
<path d="M1523 958 c-35 -17 -66 -89 -57 -134 18 -96 133 -138 203 -73 22 21
23 23 6 35 -15 11 -22 10 -43 -7 -29 -22 -64 -19 -94 8 -37 34 -23 43 66 43
47 0 88 4 91 10 11 18 -15 89 -42 109 -28 23 -92 27 -130 9z m101 -44 c32 -32
20 -44 -44 -44 -64 0 -73 9 -43 42 20 22 66 24 87 2z"/>
<path d="M1765 945 c-14 -13 -25 -33 -25 -43 0 -34 39 -72 81 -78 47 -8 67
-27 49 -49 -18 -21 -56 -19 -81 6 -16 16 -26 19 -42 12 -21 -10 -21 -10 10
-41 24 -24 40 -32 68 -32 42 0 90 22 99 45 20 54 -4 88 -73 104 -51 11 -64 22
-55 44 8 21 52 22 74 2 17 -15 50 -11 50 6 0 5 -9 18 -20 29 -30 30 -103 28
-135 -5z"/>
<path d="M2021 954 c-71 -50 -63 -178 13 -219 42 -23 109 -16 142 16 22 20 22
23 7 34 -14 10 -22 9 -44 -7 -30 -23 -66 -19 -93 8 -35 35 -21 44 69 44 l85 0
0 31 c0 37 -15 68 -44 91 -27 23 -104 23 -135 2z m111 -41 c34 -31 23 -43 -42
-43 -45 0 -60 3 -60 14 0 41 67 61 102 29z"/>
<path d="M2275 945 c-14 -13 -25 -31 -25 -38 0 -26 29 -27 54 -2 30 30 57 32
79 7 26 -29 21 -39 -24 -46 -93 -15 -131 -62 -92 -114 25 -33 85 -42 113 -17
16 15 18 15 24 0 3 -10 15 -15 28 -13 20 3 23 10 26 58 8 138 -22 190 -108
190 -41 0 -56 -5 -75 -25z m125 -128 c0 -28 -32 -58 -58 -55 -37 4 -43 44 -10
57 34 14 68 13 68 -2z"/>
<path d="M2520 845 l0 -125 25 0 c24 0 25 2 25 73 0 86 15 120 54 127 18 3 32
14 37 28 8 20 5 22 -23 22 -17 0 -40 -7 -50 -17 -17 -15 -18 -15 -18 0 0 11
-8 17 -25 17 l-25 0 0 -125z"/>
<path d="M2728 947 c-68 -56 -62 -174 12 -212 54 -28 136 -11 160 35 8 15 6
21 -11 30 -17 10 -23 8 -36 -9 -9 -14 -25 -21 -47 -21 -56 0 -86 57 -62 115
18 43 59 54 97 26 55 -41 87 -18 40 29 -25 25 -37 30 -78 30 -35 0 -55 -6 -75
-23z"/>
<path d="M3480 844 l0 -125 28 3 c27 3 27 4 32 88 3 47 8 90 12 96 14 22 59
26 79 8 16 -14 19 -32 19 -106 l0 -89 28 3 27 3 0 92 c0 77 -4 96 -21 120 -26
35 -95 45 -125 17 -17 -16 -19 -16 -19 -1 0 12 -9 17 -30 17 l-30 0 0 -126z"/>
<path d="M3785 945 c-48 -47 -19 -109 57 -121 46 -8 66 -28 48 -49 -17 -21
-56 -19 -80 5 -22 22 -45 26 -56 8 -4 -6 6 -23 25 -40 76 -68 206 -2 160 81
-11 19 -29 30 -63 38 -56 14 -71 25 -63 47 8 20 55 21 77 1 17 -15 50 -11 50
6 0 5 -9 18 -20 29 -30 30 -103 28 -135 -5z"/>
<path d="M4190 845 l0 -125 25 0 25 0 0 125 0 125 -25 0 -25 0 0 -125z"/>
<path d="M4490 870 c0 -94 2 -103 25 -125 28 -29 79 -33 112 -10 19 13 22 13
27 0 3 -8 17 -15 31 -15 l25 0 0 125 0 125 -30 0 -30 0 0 -78 c0 -91 -15 -122
-60 -122 -40 0 -50 23 -50 119 0 80 0 81 -25 81 l-25 0 0 -100z"/>
<path d="M4991 954 c-13 -9 -29 -32 -37 -50 -42 -100 25 -195 126 -181 54 7
90 38 70 62 -11 13 -15 14 -29 1 -40 -35 -99 -25 -120 20 l-11 24 90 0 90 0 0
31 c0 37 -15 68 -44 91 -27 23 -104 23 -135 2z m113 -46 c9 -12 16 -26 16 -30
0 -5 -27 -8 -60 -8 -45 0 -60 3 -60 14 0 45 77 62 104 24z"/>
<path d="M1160 490 l0 -140 84 0 c80 0 86 1 106 27 25 33 21 80 -9 101 -19 13
-19 14 0 33 36 36 20 90 -32 108 -18 6 -58 11 -90 11 l-59 0 0 -140z m138 94
c49 -34 7 -88 -65 -82 -35 3 -38 6 -41 36 -2 19 -1 40 2 48 7 19 76 18 104 -2z
m10 -120 c24 -17 29 -53 10 -72 -7 -7 -38 -12 -70 -12 l-58 0 0 43 c0 24 3 47
7 50 12 13 89 7 111 -9z"/>
<path d="M2210 485 c0 -138 1 -145 20 -145 19 0 20 7 20 145 0 138 -1 145 -20
145 -19 0 -20 -7 -20 -145z"/>
<path d="M1432 527 c-12 -13 -22 -29 -22 -35 0 -19 24 -14 38 8 15 24 54 26
76 4 25 -24 20 -31 -31 -44 -78 -19 -100 -51 -67 -98 18 -26 59 -29 92 -6 12
8 22 10 22 5 0 -6 7 -11 15 -11 12 0 15 16 15 80 0 67 -3 83 -20 100 -29 29
-90 27 -118 -3z m108 -100 c0 -28 -32 -58 -58 -55 -37 4 -43 44 -10 57 34 14
68 13 68 -2z"/>
<path d="M1630 450 c0 -82 3 -100 15 -100 11 0 15 12 15 49 0 70 16 108 51
120 16 5 29 15 29 20 0 17 -41 13 -62 -6 -17 -15 -18 -15 -18 0 0 10 -7 17
-15 17 -12 0 -15 -18 -15 -100z"/>
<path d="M1788 522 c-27 -25 -31 -36 -31 -77 0 -42 4 -52 33 -78 28 -25 38
-29 74 -24 38 5 76 34 76 58 0 16 -26 9 -45 -11 -25 -28 -60 -25 -84 6 -59 74
25 170 89 102 15 -16 23 -19 31 -11 9 9 5 18 -14 37 -36 36 -86 35 -129 -2z"/>
<path d="M2009 521 c-63 -63 -22 -181 64 -181 39 0 94 37 79 52 -7 7 -18 5
-33 -6 -33 -22 -62 -20 -87 7 -38 40 -29 47 59 47 70 0 80 2 75 16 -3 9 -6 22
-6 30 0 8 -11 26 -25 39 -35 36 -88 34 -126 -4z m105 -17 c27 -27 18 -34 -44
-34 -57 0 -60 1 -50 19 17 33 68 41 94 15z"/>
<path d="M2329 521 c-24 -24 -29 -38 -29 -76 0 -92 90 -137 158 -80 36 31 48
73 32 119 -23 70 -108 89 -161 37z m115 -23 c34 -49 5 -128 -46 -128 -30 0
-68 45 -68 80 0 62 81 96 114 48z"/>
<path d="M2547 543 c-4 -3 -7 -48 -7 -100 0 -86 1 -93 20 -93 18 0 20 7 20 63
0 75 18 107 60 107 39 0 50 -23 50 -104 0 -52 3 -66 15 -66 12 0 15 16 15 80
0 67 -3 83 -20 100 -24 24 -67 26 -98 4 -20 -14 -22 -14 -22 0 0 16 -21 22
-33 9z"/>
<path d="M2796 529 c-26 -20 -35 -49 -16 -49 6 0 19 9 30 20 26 26 66 26 81
-1 13 -26 4 -34 -52 -43 -49 -8 -74 -41 -60 -79 13 -35 56 -46 93 -24 15 9 28
12 28 7 0 -6 9 -10 21 -10 20 0 21 4 17 81 -3 70 -6 83 -27 100 -31 25 -82 24
-115 -2z m104 -108 c0 -29 -29 -53 -59 -49 -34 4 -35 38 -1 55 37 19 60 16 60
-6z"/>
</g>
</svg>
