<?xml version="1.0" standalone="no"?>
<!DOCTYPE svg PUBLIC "-//W3C//DTD SVG 20010904//EN"
 "http://www.w3.org/TR/2001/REC-SVG-20010904/DTD/svg10.dtd">
<svg version="1.0" xmlns="http://www.w3.org/2000/svg"
 width="318.000000pt" height="159.000000pt" viewBox="0 0 318.000000 159.000000"
 preserveAspectRatio="xMidYMid meet">

<g transform="translate(0.000000,159.000000) scale(0.100000,-0.100000)"
fill="#000000" stroke="none">
<path d="M520 1526 c0 -4 21 -56 26 -64 3 -5 64 27 64 34 0 4 -25 15 -67 28
-13 4 -23 5 -23 2z"/>
<path d="M675 1451 c-81 -39 -141 -84 -160 -122 -9 -17 -15 -33 -13 -35 3 -2
23 10 46 27 23 16 58 32 79 35 21 3 55 13 76 21 30 13 37 21 37 44 0 15 3 34
6 43 9 22 -2 20 -71 -13z"/>
<path d="M730 1330 c-12 -8 -9 -15 19 -44 43 -44 58 -37 28 14 -24 43 -25 44
-47 30z"/>
<path d="M1656 1253 c-6 -14 -5 -15 5 -6 7 7 10 15 7 18 -3 3 -9 -2 -12 -12z"/>
<path d="M842 1176 c18 -24 35 -42 37 -40 7 6 -49 84 -59 84 -6 0 4 -20 22
-44z"/>
<path d="M1592 1140 c-25 -33 -30 -56 -6 -25 18 24 36 55 31 55 -2 0 -13 -13
-25 -30z"/>
<path d="M1497 1022 c-21 -21 -35 -41 -31 -45 5 -5 74 68 74 79 0 8 -7 3 -43
-34z"/>
<path d="M863 1028 c-3 -37 -44 -68 -100 -75 -29 -3 -54 -12 -57 -19 -4 -10 6
-12 44 -7 85 10 133 -24 160 -114 l13 -42 21 32 c13 20 48 45 90 66 l68 34
-28 12 c-42 18 -65 48 -71 93 l-5 39 -24 -24 c-30 -30 -51 -29 -84 2 -26 24
-26 25 -27 3z"/>
<path d="M1178 975 c7 -41 -7 -75 -55 -126 l-46 -49 45 0 c48 0 69 -15 87 -60
7 -17 10 -20 10 -8 1 28 45 51 82 43 l32 -7 -6 63 c-5 45 -12 67 -24 74 -9 6
-38 29 -63 53 -54 48 -69 53 -62 17z"/>
<path d="M1690 805 l0 -195 35 0 35 0 0 195 0 195 -35 0 -35 0 0 -195z"/>
<path d="M1857 993 c-4 -3 -7 -91 -7 -195 l0 -188 35 0 35 0 0 151 0 150 56
-108 c104 -200 99 -193 149 -193 57 0 56 -1 53 215 l-3 170 -32 3 -32 3 -3
-141 -3 -142 -64 123 c-35 68 -70 132 -79 142 -15 17 -91 25 -105 10z"/>
<path d="M1383 927 c-25 -13 -40 -27 -38 -35 3 -8 5 -40 5 -73 0 -56 2 -59 31
-75 l32 -16 -22 35 c-32 53 -28 99 14 141 52 53 47 58 -22 23z"/>
<path d="M650 934 c-73 -24 -100 -38 -100 -51 0 -10 5 -13 18 -8 9 4 36 14 59
22 51 18 73 53 23 37z"/>
<path d="M2308 884 c-39 -20 -60 -68 -61 -133 -1 -102 52 -158 140 -148 23 2
50 10 58 17 15 12 22 75 8 68 -5 -2 -20 -10 -35 -17 -56 -28 -98 9 -98 87 0
57 24 85 69 80 20 -3 44 -8 54 -12 26 -12 24 50 -2 64 -28 15 -101 12 -133 -6z"/>
<path d="M446 847 c-59 -33 -57 -50 3 -24 28 12 51 28 51 35 0 17 -9 15 -54
-11z"/>
<path d="M786 808 c-37 -64 -62 -162 -48 -190 l11 -23 0 23 c1 12 16 70 35
127 19 58 32 105 30 105 -2 0 -14 -19 -28 -42z"/>
<path d="M309 753 l-24 -27 33 23 c32 23 39 31 24 31 -5 0 -19 -12 -33 -27z"/>
<path d="M866 736 c-4 -21 -19 -45 -37 -60 -18 -15 -25 -26 -16 -26 29 0 67
-41 73 -80 l6 -38 32 19 c19 12 49 19 78 19 41 0 54 -5 87 -35 45 -41 61 -32
31 17 -27 45 -25 92 6 145 l25 44 -55 -32 c-63 -35 -82 -33 -97 11 -10 26 -13
28 -26 15 -22 -22 -51 -18 -77 10 l-24 25 -6 -34z"/>
<path d="M720 540 c0 -30 -3 -65 -6 -77 -5 -18 2 -27 41 -52 67 -42 115 -57
126 -40 6 10 -3 17 -32 25 -22 7 -50 21 -61 31 -26 22 -48 74 -48 110 0 15 -5
35 -10 43 -7 11 -10 -1 -10 -40z"/>
<path d="M2065 529 c-10 -15 3 -25 16 -12 7 7 7 13 1 17 -6 3 -14 1 -17 -5z"/>
<path d="M2600 511 c0 -25 -3 -28 -26 -23 -30 5 -44 -10 -44 -49 0 -34 17 -48
58 -47 l32 1 0 74 c0 42 -4 73 -10 73 -5 0 -10 -13 -10 -29z m-2 -75 c-2 -13
-10 -21 -23 -21 -23 0 -32 30 -14 51 16 19 41 -1 37 -30z"/>
<path d="M1680 460 c0 -56 3 -70 15 -70 12 0 15 14 15 70 0 56 -3 70 -15 70
-12 0 -15 -14 -15 -70z"/>
<path d="M1990 505 c0 -8 -5 -15 -11 -15 -8 0 -8 -4 -1 -13 6 -6 12 -28 14
-47 2 -27 8 -36 26 -38 12 -2 22 1 22 7 0 6 -7 11 -15 11 -10 0 -15 10 -15 30
0 25 4 30 25 30 23 0 25 -4 25 -40 0 -22 5 -40 10 -40 6 0 10 23 10 50 l0 50
-35 0 c-24 0 -35 5 -35 15 0 8 -4 15 -10 15 -5 0 -10 -7 -10 -15z"/>
<path d="M2128 502 c-3 -9 -2 -38 1 -62 5 -37 10 -46 29 -48 25 -4 30 13 7 22
-8 3 -15 17 -15 31 0 16 6 25 15 25 20 0 19 6 -5 30 -24 24 -26 25 -32 2z"/>
<path d="M2348 503 c-5 -64 9 -113 32 -113 11 0 20 5 20 10 0 6 -4 10 -10 10
-15 0 -12 57 3 64 10 5 10 7 0 12 -7 3 -13 12 -13 20 0 20 -30 17 -32 -3z"/>
<path d="M1147 484 c-3 -4 5 -29 19 -56 17 -34 29 -47 36 -40 6 6 3 23 -11 50
-22 43 -34 55 -44 46z"/>
<path d="M1750 439 c0 -37 4 -49 15 -49 11 0 15 11 15 40 0 33 3 40 20 40 17
0 20 -7 20 -40 0 -22 5 -40 11 -40 6 0 9 19 7 48 l-3 47 -42 1 -43 2 0 -49z"/>
<path d="M1883 474 c-4 -11 3 -23 20 -36 30 -22 27 -42 -4 -33 -11 4 -19 2
-19 -5 0 -7 13 -10 33 -8 42 4 50 39 12 56 -31 14 -32 29 -2 35 19 4 18 4 -6
6 -17 0 -30 -5 -34 -15z"/>
<path d="M2222 443 l3 -48 40 -1 40 -1 0 49 c0 58 -22 67 -27 11 -2 -27 -8
-39 -20 -41 -15 -3 -18 4 -18 37 0 23 -5 41 -11 41 -6 0 -9 -19 -7 -47z"/>
<path d="M2668 466 c-17 -39 3 -76 41 -76 16 0 33 5 37 11 3 6 -1 10 -12 9
-34 -4 -44 0 -44 15 0 10 10 15 31 15 26 0 30 3 27 23 -2 17 -11 23 -35 25
-27 3 -35 -1 -45 -22z m60 -3 c2 -8 -6 -13 -22 -13 -19 0 -24 4 -19 15 6 18
34 16 41 -2z"/>
<path d="M634 408 c-31 -10 -31 -11 -13 -29 11 -11 19 -28 19 -38 0 -22 39
-53 104 -82 43 -19 47 -19 71 -3 15 10 37 14 55 12 27 -4 29 -3 15 12 -8 9
-15 21 -15 27 0 5 -19 16 -42 24 -23 7 -68 30 -100 51 -32 21 -60 38 -61 37
-1 -1 -16 -6 -33 -11z"/>
<path d="M1210 339 c0 -32 24 -87 35 -82 11 3 11 13 1 45 -11 39 -36 65 -36
37z"/>
<path d="M2430 312 c0 -5 7 -16 16 -23 14 -12 16 -11 13 5 -4 20 -29 35 -29
18z"/>
<path d="M2360 300 c0 -5 7 -10 15 -10 8 0 15 5 15 10 0 6 -7 10 -15 10 -8 0
-15 -4 -15 -10z"/>
<path d="M2740 300 c0 -5 7 -10 15 -10 8 0 15 5 15 10 0 6 -7 10 -15 10 -8 0
-15 -4 -15 -10z"/>
<path d="M1682 233 c2 -37 7 -68 13 -68 5 0 8 24 6 53 -1 28 0 52 3 52 3 0 17
-22 30 -49 24 -46 47 -67 60 -54 3 4 6 35 6 70 0 49 -3 63 -15 63 -11 0 -15
-12 -15 -47 l0 -48 -24 45 c-15 28 -32 46 -45 48 -21 3 -22 0 -19 -65z"/>
<path d="M600 255 c-11 -13 -8 -15 14 -15 36 0 78 -23 109 -59 20 -24 26 -27
31 -15 10 26 7 32 -16 39 -13 4 -44 20 -71 36 -55 34 -51 33 -67 14z"/>
<path d="M1833 244 c-15 -24 -15 -29 -2 -53 11 -19 23 -26 44 -26 15 0 30 5
32 10 2 6 -9 11 -23 10 -15 0 -29 6 -31 13 -3 8 7 12 31 12 38 0 43 8 26 41
-15 28 -56 24 -77 -7z m57 -4 c0 -5 -9 -10 -20 -10 -11 0 -20 5 -20 10 0 6 9
10 20 10 11 0 20 -4 20 -10z"/>
<path d="M1940 226 c0 -50 10 -61 57 -61 l33 0 0 53 c0 28 -4 52 -10 52 -5 0
-10 -15 -10 -34 0 -33 -20 -62 -33 -49 -4 3 -7 24 -7 45 0 27 -4 38 -15 38
-11 0 -15 -12 -15 -44z"/>
<path d="M2062 216 c3 -60 22 -68 26 -13 2 22 10 41 18 44 24 9 16 20 -16 20
-31 0 -31 -1 -28 -51z"/>
<path d="M2152 258 c-20 -20 -15 -76 7 -88 43 -22 81 1 81 49 0 34 -17 51 -50
51 -14 0 -31 -5 -38 -12z m61 -28 c3 -10 -1 -27 -8 -37 -13 -17 -15 -17 -30
-2 -11 11 -15 24 -10 38 8 26 41 28 48 1z"/>
<path d="M2269 246 c-23 -49 10 -97 55 -80 23 9 20 27 -3 19 -23 -7 -41 18
-33 47 3 15 11 19 29 15 15 -3 22 0 20 7 -2 6 -16 12 -30 14 -21 3 -30 -3 -38
-22z"/>
<path d="M2360 215 c0 -30 5 -55 10 -55 6 0 10 25 10 55 0 30 -4 55 -10 55 -5
0 -10 -25 -10 -55z"/>
<path d="M2419 246 c-24 -51 11 -97 61 -81 28 9 25 23 -3 18 -14 -3 -29 2 -36
11 -12 14 -9 16 23 16 28 0 36 4 36 18 0 45 -63 59 -81 18z m56 -6 c3 -5 -3
-10 -14 -10 -12 0 -21 5 -21 10 0 6 6 10 14 10 8 0 18 -4 21 -10z"/>
<path d="M2530 213 c0 -29 5 -53 10 -53 6 0 10 15 10 34 0 39 26 69 41 45 5
-8 9 -29 9 -46 0 -18 5 -33 10 -33 15 0 12 86 -2 97 -7 6 -28 10 -45 10 l-33
0 0 -54z"/>
<path d="M2656 248 c-21 -29 -20 -41 2 -68 13 -17 24 -21 40 -16 29 9 28 23 0
22 -19 -1 -23 4 -23 29 0 25 4 30 23 29 28 -1 23 20 -5 24 -13 2 -27 -6 -37
-20z"/>
<path d="M2744 256 c-9 -22 0 -91 11 -89 14 4 19 103 5 103 -6 0 -13 -6 -16
-14z"/>
<path d="M2804 245 c-13 -21 -15 -31 -6 -50 12 -25 52 -42 71 -30 19 11 12 21
-16 20 -14 0 -28 6 -30 13 -3 8 7 12 31 12 38 0 43 8 26 41 -15 28 -56 24 -76
-6z m56 -5 c0 -5 -9 -10 -20 -10 -11 0 -20 5 -20 10 0 6 9 10 20 10 11 0 20
-4 20 -10z"/>
<path d="M2917 263 c-15 -15 -6 -44 18 -55 28 -13 23 -32 -7 -25 -12 4 -18 1
-15 -6 5 -17 35 -21 52 -7 22 18 18 39 -10 52 -30 14 -33 28 -5 28 11 0 20 5
20 10 0 11 -43 14 -53 3z"/>
<path d="M1256 202 c-2 -4 -1 -23 4 -42 l8 -35 1 43 c1 41 -3 50 -13 34z"/>
</g>
</svg>
