<?xml version="1.0" standalone="no"?>
<!DOCTYPE svg PUBLIC "-//W3C//DTD SVG 20010904//EN"
 "http://www.w3.org/TR/2001/REC-SVG-20010904/DTD/svg10.dtd">
<svg version="1.0" xmlns="http://www.w3.org/2000/svg"
 width="500.000000pt" height="152.000000pt" viewBox="0 0 500.000000 152.000000"
 preserveAspectRatio="xMidYMid meet">

<g transform="translate(0.000000,152.000000) scale(0.100000,-0.100000)"
fill="#000000" stroke="none">
<path d="M2166 1270 c-47 -15 -84 -58 -95 -110 -20 -94 26 -168 151 -242 38
-22 73 -49 78 -59 27 -49 -2 -109 -53 -109 -32 0 -58 11 -108 43 -26 17 -27
17 -58 -8 -29 -25 -30 -28 -17 -53 24 -47 90 -75 181 -80 68 -3 85 0 113 18
45 28 72 90 72 165 0 83 -20 112 -124 174 -115 70 -138 106 -100 159 18 26 53
28 112 8 45 -16 55 -11 67 36 6 23 2 29 -27 44 -38 20 -149 28 -192 14z"/>
<path d="M2604 1269 c-44 -13 -80 -53 -101 -112 -25 -74 -25 -311 0 -383 31
-90 84 -124 193 -124 159 0 206 72 206 315 0 246 -48 317 -212 314 -30 0 -69
-5 -86 -10z m145 -78 c20 -13 30 -87 30 -226 1 -134 -9 -193 -35 -212 -10 -7
-39 -13 -66 -13 -43 0 -48 2 -55 28 -5 15 -8 102 -8 194 0 154 2 169 21 195
13 17 34 30 55 34 19 4 36 7 39 8 3 0 11 -3 19 -8z"/>
<path d="M3060 1258 c-71 -36 -92 -89 -98 -245 -11 -279 39 -362 215 -363 103
0 123 10 123 60 l0 40 -84 0 c-126 0 -130 8 -124 243 3 128 5 148 23 167 18
20 26 22 91 16 80 -6 93 1 97 50 2 24 -3 30 -33 41 -60 20 -160 16 -210 -9z"/>
<path d="M3722 1272 c-14 -9 -116 -587 -108 -609 4 -8 24 -13 55 -13 44 0 51
3 56 23 5 25 25 148 25 160 0 4 26 7 59 7 l59 0 12 -82 c7 -46 17 -89 23 -95
5 -7 29 -13 53 -13 34 0 44 4 44 16 0 68 -104 579 -122 601 -12 15 -135 18
-156 5z m107 -229 l18 -103 -39 0 -40 0 6 48 c15 100 29 177 33 167 1 -5 11
-56 22 -112z"/>
<path d="M4055 1258 c-3 -13 -4 -151 -3 -308 l3 -285 150 0 150 0 3 39 c2 24
-2 42 -10 47 -7 5 -49 9 -94 9 l-81 0 -7 229 c-4 126 -11 242 -15 258 -6 24
-13 28 -49 31 -36 3 -42 0 -47 -20z"/>
<path d="M3361 1256 c-19 -23 -9 -70 17 -81 22 -10 22 -12 22 -210 0 -198 0
-200 -22 -210 -25 -11 -33 -34 -24 -71 6 -23 9 -24 101 -24 85 0 95 2 105 20
18 34 9 74 -17 78 -22 3 -23 7 -23 125 0 67 -3 158 -6 203 -6 76 -5 81 14 86
25 7 39 62 22 83 -17 21 -172 21 -189 1z"/>
<path d="M2097 543 c-4 -3 -7 -118 -7 -255 l0 -248 69 0 c38 0 81 4 95 10 39
15 66 66 66 127 0 66 -15 98 -53 116 -28 14 -28 15 -8 22 30 9 51 56 51 113 0
61 -25 97 -78 112 -42 11 -125 13 -135 3z m161 -59 c24 -28 28 -64 11 -113
-13 -37 -41 -51 -100 -51 l-39 0 0 101 0 102 53 -7 c38 -5 58 -13 75 -32z m-1
-218 c25 -22 28 -31 28 -86 0 -55 -3 -64 -28 -86 -22 -18 -40 -24 -78 -24
l-49 0 0 110 0 110 49 0 c38 0 56 -6 78 -24z"/>
<path d="M2408 544 c-5 -4 -8 -119 -8 -256 0 -241 1 -248 20 -248 19 0 20 7
20 111 l0 110 32 -3 c31 -3 34 -8 78 -110 34 -82 49 -108 64 -108 21 0 23 -6
-36 128 l-42 95 26 21 c37 31 48 58 48 120 0 67 -15 103 -52 122 -32 17 -139
30 -150 18z m127 -40 c23 -9 45 -57 45 -99 0 -72 -41 -115 -111 -115 l-29 0 0
110 0 110 39 0 c22 0 47 -3 56 -6z"/>
<path d="M2765 538 c-7 -22 -115 -478 -115 -488 0 -6 7 -10 15 -10 14 0 24 27
45 128 l12 52 63 0 63 0 22 -90 c18 -71 26 -90 40 -90 16 0 12 23 -37 217 -30
120 -58 235 -64 256 -10 36 -35 51 -44 25z m75 -275 c0 -2 -25 -3 -56 -3 -41
0 -55 3 -51 13 2 7 15 59 28 116 l23 104 28 -114 c15 -63 27 -115 28 -116z"/>
<path d="M2980 295 c0 -220 2 -255 15 -255 13 0 15 35 15 255 0 220 -2 255
-15 255 -13 0 -15 -35 -15 -255z"/>
<path d="M3120 296 c0 -219 2 -256 15 -256 12 0 15 34 17 221 l3 221 93 -221
c76 -179 97 -221 113 -221 18 0 19 10 19 255 0 219 -2 255 -15 255 -12 0 -15
-33 -17 -219 l-3 -219 -91 217 c-75 178 -95 217 -113 219 l-21 3 0 -255z"/>
<path d="M3620 295 l0 -255 90 0 c72 0 90 3 90 15 0 11 -17 15 -72 17 l-73 3
-3 238 c-2 201 -5 237 -17 237 -13 0 -15 -36 -15 -255z"/>
<path d="M3925 538 c-7 -22 -115 -478 -115 -488 0 -6 7 -10 15 -10 14 0 24 27
45 128 l12 52 63 0 63 0 22 -90 c18 -71 26 -90 40 -90 16 0 12 23 -37 217 -30
120 -58 235 -64 256 -10 36 -35 51 -44 25z m75 -275 c0 -2 -25 -3 -56 -3 -41
0 -55 3 -51 13 2 7 15 59 28 116 l23 104 28 -114 c15 -63 27 -115 28 -116z"/>
<path d="M4140 296 l0 -256 70 0 c43 0 82 6 99 15 32 16 61 77 61 126 0 45
-26 97 -54 110 l-25 12 29 27 c35 32 47 87 31 140 -15 52 -48 71 -137 77 l-74
6 0 -257z m122 214 c45 -13 58 -34 58 -95 0 -65 -31 -95 -100 -95 l-50 0 0 93
c0 52 3 97 7 100 9 10 42 8 85 -3z m21 -232 c37 -19 46 -40 47 -101 0 -48 -4
-62 -25 -82 -20 -21 -34 -25 -80 -25 l-55 0 0 110 0 110 46 0 c25 0 55 -5 67
-12z"/>
</g>
</svg>
