<?xml version="1.0" standalone="no"?>
<!DOCTYPE svg PUBLIC "-//W3C//DTD SVG 20010904//EN"
 "http://www.w3.org/TR/2001/REC-SVG-20010904/DTD/svg10.dtd">
<svg version="1.0" xmlns="http://www.w3.org/2000/svg"
 width="1892.000000pt" height="727.000000pt" viewBox="0 0 1892.000000 727.000000"
 preserveAspectRatio="xMidYMid meet">

<g transform="translate(0.000000,727.000000) scale(0.100000,-0.100000)"
fill="#000000" stroke="none">
<path d="M203 6223 c3 -919 6 -1048 21 -1123 51 -260 138 -432 297 -586 212
-205 515 -307 945 -321 745 -24 1207 224 1367 733 62 198 61 161 64 1297 l4
1037 -341 0 -340 0 0 -943 c0 -589 -4 -974 -10 -1027 -23 -189 -76 -315 -166
-400 -107 -101 -247 -141 -489 -141 -385 0 -554 107 -637 406 l-23 80 -3 1013
-3 1012 -345 0 -345 0 4 -1037z"/>
<path d="M3725 5803 c-319 -801 -588 -1476 -597 -1500 l-18 -43 338 0 337 0
28 74 c79 204 266 405 468 501 178 84 354 105 894 105 l361 0 130 -337 130
-338 338 -3 c193 -1 336 2 334 7 -1 4 -270 679 -597 1500 l-595 1491 -485 0
-486 0 -580 -1457z m1591 -319 l6 -22 -284 -5 c-247 -4 -294 -7 -367 -26 -94
-24 -225 -82 -297 -132 -67 -46 -186 -161 -246 -238 -68 -88 -71 -90 -60 -61
11 29 687 1708 709 1760 l14 35 260 -645 c143 -355 262 -655 265 -666z"/>
<path d="M6740 5760 l0 -1500 860 0 c560 0 895 4 962 11 410 44 667 232 760
556 19 67 23 102 23 248 0 193 -11 250 -72 375 -49 101 -149 201 -258 257 -81
42 -236 93 -281 93 -46 0 -24 16 47 34 40 10 117 41 171 68 167 84 273 208
328 383 31 99 39 291 16 405 -54 278 -249 465 -565 543 -84 20 -109 21 -1038
24 l-953 4 0 -1501z m1647 967 c113 -38 182 -122 204 -251 32 -189 -37 -345
-179 -409 -89 -40 -200 -48 -617 -45 l-370 3 -3 363 -2 363 457 -3 c401 -4
465 -6 510 -21z m-79 -1167 c108 -18 171 -47 234 -110 48 -48 60 -68 78 -129
32 -104 26 -251 -13 -336 -43 -93 -98 -141 -202 -180 -46 -17 -91 -19 -517
-23 l-468 -3 0 395 0 396 413 0 c232 0 439 -5 475 -10z"/>
<path d="M13337 3193 c-14 -43 -24 -79 -22 -81 1 -1 106 -15 233 -30 l231 -28
11 30 c5 16 8 31 6 34 -3 2 -94 35 -203 72 -109 38 -206 71 -215 75 -14 5 -21
-7 -41 -72z"/>
<path d="M200 2848 c0 -299 4 -409 14 -459 37 -173 144 -276 334 -320 74 -18
286 -15 362 5 183 47 288 152 319 320 7 37 11 211 11 453 l0 393 -130 0 -129
0 -3 -402 -3 -403 -28 -57 c-23 -48 -36 -61 -79 -82 -44 -22 -66 -26 -137 -26
-111 0 -157 14 -202 59 -61 60 -62 74 -66 514 l-4 397 -130 0 -129 0 0 -392z"/>
<path d="M2520 3155 l0 -85 140 0 140 0 0 85 0 85 -140 0 -140 0 0 -85z"/>
<path d="M6630 3155 l0 -85 140 0 140 0 0 85 0 85 -140 0 -140 0 0 -85z"/>
<path d="M10186 2672 c-110 -312 -201 -573 -204 -580 -3 -10 24 -12 128 -10
l133 3 41 117 41 118 262 0 261 0 42 -120 43 -120 133 0 134 0 -11 28 c-6 15
-96 268 -199 562 -104 294 -192 543 -195 553 -6 15 -26 17 -209 17 l-201 0
-199 -568z m500 110 l91 -257 -185 -3 c-102 -1 -187 -1 -189 2 -2 2 30 102 73
222 42 121 83 238 91 262 9 24 18 40 22 37 3 -3 47 -122 97 -263z"/>
<path d="M7286 3118 c-13 -24 -37 -70 -54 -103 -29 -59 -30 -59 -118 -96 l-89
-37 -3 -61 -3 -61 81 0 80 0 0 -203 c0 -218 10 -300 42 -359 46 -81 115 -108
301 -115 l137 -6 0 102 0 101 -110 0 -110 0 0 240 0 240 125 0 125 0 0 95 0
95 -125 0 -125 0 0 105 0 105 -65 0 -64 0 -25 -42z"/>
<path d="M8981 3056 l-54 -104 -86 -34 -86 -34 -3 -62 -3 -62 81 0 80 0 0
-218 c0 -240 11 -310 56 -369 50 -66 145 -93 321 -93 l103 0 0 100 0 99 -112
3 -113 3 -3 238 -2 237 130 0 130 0 0 95 0 94 -127 3 -128 3 -3 103 -3 102
-62 0 -62 0 -54 -104z"/>
<path d="M12551 3057 l-55 -103 -85 -35 -86 -35 -3 -62 -3 -62 81 0 80 0 0
-220 c0 -244 8 -300 51 -359 52 -73 143 -101 326 -101 l103 0 0 100 0 99 -112
3 -113 3 -3 238 -2 237 125 0 125 0 0 95 0 94 -122 3 -123 3 -3 103 -3 102
-62 0 -62 0 -54 -103z"/>
<path d="M1905 2967 c-22 -8 -54 -21 -71 -30 -32 -16 -124 -112 -124 -128 0
-5 -4 -9 -10 -9 -6 0 -10 32 -10 75 l0 75 -125 0 -125 0 0 -435 0 -435 125 0
125 0 0 218 c0 300 17 378 97 439 31 24 47 28 112 31 90 4 127 -14 157 -74 17
-35 19 -67 22 -326 l3 -288 125 0 125 0 -3 338 c-3 326 -4 339 -26 386 -55
121 -127 166 -270 172 -55 3 -102 -1 -127 -9z"/>
<path d="M4248 2965 c-223 -56 -339 -227 -325 -480 14 -279 174 -426 462 -427
215 -1 354 64 419 195 44 87 44 87 -91 87 l-118 0 -29 -36 c-39 -49 -96 -74
-174 -74 -109 0 -168 37 -202 127 -38 101 -67 92 313 95 l332 3 -2 87 c-3 205
-96 351 -259 409 -78 27 -245 35 -326 14z m253 -181 c43 -26 69 -63 84 -121
l12 -48 -210 -3 c-115 -1 -212 0 -214 2 -3 3 3 29 12 58 20 60 65 109 116 126
49 16 161 9 200 -14z"/>
<path d="M5895 2965 c-153 -39 -229 -129 -228 -270 0 -82 22 -135 76 -182 47
-41 107 -59 257 -78 194 -24 232 -44 232 -123 0 -140 -314 -129 -350 12 l-8
31 -118 3 -118 3 6 -38 c11 -64 58 -145 103 -179 90 -69 252 -102 413 -84 125
13 187 36 243 89 95 88 102 272 15 367 -54 58 -117 80 -297 103 -190 24 -222
40 -221 109 1 58 58 92 155 92 87 0 141 -26 164 -81 l16 -39 117 0 118 0 -7
33 c-21 108 -88 179 -208 221 -70 25 -279 31 -360 11z"/>
<path d="M8100 2967 c-153 -35 -251 -128 -274 -259 l-7 -38 123 0 124 0 14 42
c19 53 64 85 134 93 96 12 168 -15 185 -68 15 -44 1 -81 -37 -101 -16 -8 -96
-27 -178 -40 -235 -40 -312 -75 -354 -160 -24 -51 -30 -169 -11 -219 35 -91
125 -147 247 -155 143 -9 262 45 321 146 21 35 28 42 30 27 1 -11 5 -50 8 -87
l7 -68 107 0 107 0 -3 233 c-6 436 -7 458 -30 503 -30 57 -90 108 -159 134
-73 28 -267 37 -354 17z m306 -499 c-10 -90 -48 -163 -104 -199 -54 -34 -117
-45 -167 -29 -54 18 -75 46 -75 99 1 76 30 98 179 136 58 14 116 33 130 40 41
22 44 19 37 -47z"/>
<path d="M13411 2964 c-96 -20 -162 -57 -224 -124 -122 -132 -152 -367 -69
-545 66 -141 174 -212 356 -235 206 -25 389 40 480 173 94 136 106 366 29 520
-89 179 -324 265 -572 211z m254 -203 c88 -40 121 -120 113 -275 -8 -150 -52
-208 -171 -228 -46 -8 -77 -8 -120 1 -113 24 -157 96 -157 256 0 141 41 227
122 252 55 18 168 15 213 -6z"/>
<path d="M14656 2964 c-71 -22 -122 -60 -167 -122 l-39 -55 0 81 0 82 -125 0
-125 0 0 -435 0 -435 124 0 125 0 3 258 c5 293 11 326 78 386 44 39 86 50 166
44 39 -3 61 -11 80 -29 55 -50 58 -71 62 -376 l4 -283 125 0 124 0 -3 333 c-3
315 -5 335 -26 387 -25 65 -89 131 -147 156 -57 24 -197 28 -259 8z"/>
<path d="M15574 2966 c-214 -49 -334 -209 -334 -446 0 -229 102 -378 303 -442
87 -28 267 -28 354 0 83 26 140 61 190 115 76 82 113 189 113 327 0 212 -102
367 -285 430 -79 28 -254 36 -341 16z m277 -212 c49 -29 76 -75 89 -156 15
-85 6 -174 -22 -241 -16 -36 -32 -54 -67 -75 -40 -24 -56 -27 -131 -27 -117 1
-161 24 -198 103 -22 49 -26 70 -26 152 0 153 33 224 119 256 57 21 191 14
236 -12z"/>
<path d="M16815 2967 c-80 -27 -131 -66 -178 -137 -17 -24 -17 -23 -17 48 l0
72 -130 0 -130 0 0 -435 0 -435 129 0 130 0 3 273 3 272 28 52 c34 66 81 93
163 93 73 0 116 -25 140 -83 15 -36 18 -82 22 -324 l4 -283 119 0 119 0 0 213
c0 230 10 319 41 384 29 61 70 86 145 91 82 5 126 -15 154 -72 19 -40 20 -61
20 -329 l0 -287 131 0 131 0 -4 328 c-4 314 -5 329 -27 387 -47 119 -151 185
-292 185 -120 0 -216 -50 -281 -145 l-37 -55 -11 34 c-16 48 -73 111 -126 136
-56 28 -189 37 -249 17z"/>
<path d="M18298 2965 c-151 -38 -248 -130 -265 -250 l-6 -45 127 0 c124 0 126
0 126 23 0 24 24 64 50 84 28 22 109 35 167 28 69 -8 113 -45 113 -95 0 -71
-11 -76 -245 -119 -184 -33 -251 -58 -299 -111 -77 -85 -76 -239 1 -329 56
-66 110 -86 233 -86 88 0 113 4 155 23 59 27 98 61 136 120 l27 43 6 -53 c3
-29 7 -66 8 -83 l3 -30 114 -3 113 -3 -7 28 c-4 15 -10 174 -14 353 l-6 325
-28 47 c-31 54 -89 97 -162 123 -68 24 -268 30 -347 10z m310 -500 c-10 -117
-71 -200 -168 -226 -91 -24 -167 13 -176 86 -10 80 31 113 183 152 53 13 108
31 122 38 14 8 30 14 35 15 5 0 6 -29 4 -65z"/>
<path d="M5447 2960 c-80 -14 -153 -74 -189 -155 -12 -28 -13 -25 -16 58 l-3
87 -124 0 -125 0 0 -435 0 -435 130 0 130 0 0 218 c0 245 9 297 61 357 37 42
106 65 196 65 l63 0 0 125 0 125 -37 -1 c-21 -1 -60 -5 -86 -9z"/>
<path d="M2530 2515 l0 -435 125 0 125 0 0 435 0 435 -125 0 -125 0 0 -435z"/>
<path d="M2959 2813 c26 -76 95 -272 151 -435 l104 -298 180 0 181 0 151 435
151 435 -122 0 -122 0 -108 -317 c-59 -175 -111 -325 -116 -333 -9 -18 6 -59
-128 330 l-108 315 -131 3 -132 3 49 -138z"/>
<path d="M6650 2515 l0 -435 125 0 125 0 0 435 0 435 -125 0 -125 0 0 -435z"/>
<path d="M11302 2623 c3 -305 5 -332 24 -379 44 -109 115 -164 234 -183 142
-23 262 21 337 123 l43 58 0 -81 0 -81 125 0 125 0 0 435 0 435 -125 0 -125 0
0 -234 c0 -270 -12 -334 -73 -397 -84 -87 -237 -75 -289 23 -22 41 -23 54 -26
326 l-4 282 -125 0 -124 0 3 -327z"/>
<path d="M870 1224 l0 -236 -45 47 c-25 25 -65 55 -88 65 -65 29 -165 42 -241
31 -229 -33 -349 -212 -333 -500 8 -168 66 -288 171 -358 66 -45 115 -57 226
-58 126 0 185 20 257 89 l53 52 0 -58 0 -58 130 0 130 0 0 610 0 610 -130 0
-130 0 0 -236z m-145 -298 c62 -19 110 -67 131 -129 23 -71 16 -226 -14 -284
-40 -76 -112 -108 -227 -101 -121 8 -173 55 -195 178 -24 131 13 274 81 314
63 37 146 45 224 22z"/>
<path d="M7790 850 l0 -610 125 0 125 0 0 610 0 610 -125 0 -125 0 0 -610z"/>
<path d="M2780 821 l0 -581 358 0 c386 0 433 5 515 53 96 57 130 123 131 257
1 83 -2 102 -24 145 -30 58 -98 109 -168 127 l-45 11 64 29 c79 36 105 60 135
123 18 37 24 67 24 119 0 99 -16 143 -75 201 -85 86 -97 88 -537 93 l-378 4 0
-581z m643 365 c52 -22 70 -50 74 -114 3 -45 0 -64 -17 -90 -34 -54 -67 -62
-265 -62 l-175 0 0 140 0 140 175 0 c126 0 185 -4 208 -14z m16 -464 c74 -37
100 -122 63 -204 -31 -71 -55 -78 -276 -78 l-186 0 0 150 0 150 183 0 c153 0
187 -3 216 -18z"/>
<path d="M1655 1130 c-183 -25 -317 -138 -360 -305 -19 -73 -19 -232 -1 -300
30 -115 109 -215 206 -265 120 -61 335 -65 485 -9 94 35 178 127 200 222 l7
27 -117 0 -117 0 -39 -44 c-46 -52 -90 -69 -174 -70 -118 0 -200 70 -213 180
l-5 44 333 0 333 0 -5 108 c-6 124 -27 189 -86 267 -86 113 -262 170 -447 145z
m190 -185 c40 -16 82 -66 95 -113 21 -77 34 -72 -200 -72 l-210 0 0 23 c0 41
52 130 89 151 64 37 155 41 226 11z"/>
<path d="M4281 1130 c-108 -17 -204 -67 -255 -134 -30 -40 -56 -106 -56 -142
0 -24 0 -24 125 -24 112 0 125 2 125 18 0 31 40 83 75 98 44 18 156 18 200 0
38 -16 55 -42 55 -83 0 -67 -24 -78 -255 -118 -223 -38 -305 -85 -334 -190
-26 -94 -8 -186 46 -246 57 -63 103 -82 209 -87 154 -7 255 38 314 141 l28 50
6 -54 c3 -30 7 -67 8 -84 l3 -30 114 -3 113 -3 -7 28 c-4 15 -10 174 -14 353
-7 364 -5 355 -84 427 -32 30 -65 48 -113 63 -78 24 -221 33 -303 20z m265
-545 c-4 -22 -20 -63 -36 -92 -24 -41 -40 -57 -85 -78 -46 -23 -65 -27 -112
-23 -48 4 -61 10 -85 37 -30 34 -36 73 -16 115 17 38 46 53 169 86 61 17 123
37 138 44 25 14 26 14 29 -17 2 -17 1 -50 -2 -72z"/>
<path d="M6080 1134 c-127 -15 -210 -51 -283 -122 -87 -85 -127 -189 -127
-337 0 -276 155 -442 430 -462 267 -19 472 116 497 327 l6 51 -123 -3 -122 -3
-13 -39 c-20 -58 -45 -88 -96 -114 -37 -20 -55 -23 -120 -19 -101 5 -142 29
-178 106 -23 49 -26 68 -26 156 1 160 48 232 168 257 118 25 223 -28 249 -125
l12 -47 123 0 c71 0 123 4 123 10 0 30 -26 121 -45 160 -46 90 -149 164 -260
188 -61 14 -167 21 -215 16z"/>
<path d="M7095 1130 c-97 -13 -169 -46 -233 -105 -97 -90 -142 -200 -142 -347
0 -299 172 -469 474 -468 199 1 351 76 412 205 41 86 42 85 -95 85 l-119 0
-21 -36 c-37 -62 -146 -93 -253 -71 -70 15 -130 87 -144 176 l-7 41 334 2 334
3 -2 90 c-4 156 -57 273 -161 352 -79 60 -242 91 -377 73z m206 -191 c46 -23
80 -77 87 -135 l5 -44 -212 0 c-116 0 -211 4 -211 8 0 23 32 110 48 128 60 71
189 90 283 43z"/>
<path d="M8588 1129 c-242 -32 -380 -197 -380 -454 0 -199 74 -335 223 -410
142 -72 372 -71 517 2 72 36 155 127 181 199 92 245 12 516 -182 615 -84 43
-240 64 -359 48z m189 -204 c61 -18 107 -65 124 -127 6 -25 9 -88 7 -148 -3
-89 -7 -112 -28 -149 -34 -60 -84 -85 -178 -89 -174 -9 -251 83 -240 288 6
101 31 167 76 198 57 41 155 52 239 27z"/>
<path d="M9828 1130 c-91 -16 -152 -57 -225 -156 l-22 -29 0 83 -1 82 -125 0
-125 0 0 -435 0 -435 125 0 125 0 0 213 c0 307 19 390 103 445 35 23 51 27
113 27 82 0 114 -16 149 -76 19 -31 20 -55 23 -321 l3 -288 125 0 124 0 0 313
c0 377 -9 426 -92 503 -46 44 -84 61 -159 73 -71 12 -74 12 -141 1z"/>
<path d="M10723 1129 c-166 -28 -284 -128 -307 -261 l-7 -38 126 0 c84 0 125
4 125 11 0 36 36 83 78 101 65 29 190 23 225 -10 46 -43 43 -105 -6 -137 -14
-9 -92 -27 -173 -41 -184 -30 -260 -55 -311 -99 -56 -48 -74 -91 -75 -178 -1
-90 21 -146 75 -192 60 -52 121 -68 235 -63 76 3 107 9 142 27 58 30 106 75
133 126 l22 40 2 -35 c2 -19 6 -59 9 -87 l5 -53 107 0 107 0 -3 322 c-3 356
-9 396 -62 460 -75 91 -268 137 -447 107z m273 -501 c-8 -70 -36 -140 -69
-177 -69 -74 -229 -81 -267 -12 -15 29 -12 93 6 119 22 32 58 48 175 77 57 14
112 32 124 40 34 24 38 18 31 -47z"/>
<path d="M5429 1106 c-59 -21 -98 -55 -132 -115 l-32 -56 -3 88 -3 87 -124 0
-125 0 0 -435 0 -435 129 0 129 0 4 238 c3 226 4 239 27 285 15 31 39 59 64
75 35 23 53 27 134 30 l93 4 0 124 0 124 -62 0 c-35 -1 -79 -7 -99 -14z"/>
</g>
</svg>
