<?xml version="1.0" encoding="UTF-8" standalone="no"?>
<!DOCTYPE svg PUBLIC "-//W3C//DTD SVG 1.1//EN" "http://www.w3.org/Graphics/SVG/1.1/DTD/svg11.dtd">
<svg width="641px" height="175px" version="1.1" xmlns="http://www.w3.org/2000/svg" xmlns:xlink="http://www.w3.org/1999/xlink" xml:space="preserve" xmlns:serif="http://www.serif.com/" style="fill-rule:evenodd;clip-rule:evenodd;stroke-linejoin:round;stroke-miterlimit:2;">
    <g transform="matrix(1,0,0,1,-822.403,-883.975)">
        <g transform="matrix(1,0,0,1,341.417,-20.2249)">
            <g transform="matrix(1,0,0,1,-639.711,251.786)">
                <rect x="1120.7" y="724.93" width="32.688" height="67.248" style="fill-rule:nonzero;"/>
            </g>
            <g transform="matrix(1,0,0,1,-640.02,317.767)">
                <circle cx="1137.27" cy="635.744" r="16.175"/>
            </g>
            <g transform="matrix(1,0,0,1,-639.711,251.786)">
                <path d="M1234.6,766.69L1214.3,766.69C1212.71,766.69 1210.41,767.122 1209.11,767.554L1209.11,766.69C1211.27,764.818 1213,762.946 1214.44,760.786L1236.18,728.386L1236.18,724.93L1166.63,724.93L1166.63,750.274L1184.2,750.274C1186.22,750.274 1187.8,750.13 1190.11,749.266L1190.11,749.842C1188.38,751.282 1185.35,754.306 1184.2,756.034L1163.32,787.714L1163.32,792.178L1234.6,792.178L1234.6,766.69Z" style="fill-rule:nonzero;"/>
            </g>
            <g transform="matrix(1,0,0,1,-639.711,251.786)">
                <path d="M1246.27,764.674C1246.27,772.306 1249.43,778.498 1254.18,783.25C1260.38,789.442 1270.6,794.05 1284.42,794.05C1298.25,794.05 1308.76,789.442 1315.1,782.818C1321.72,775.906 1322.87,768.562 1322.87,763.666L1322.87,724.93L1290.18,724.93L1290.18,761.362C1290.18,763.234 1290.04,765.106 1288.46,766.69C1287.16,767.986 1285.72,768.13 1284.42,768.13C1283.13,768.13 1281.69,767.986 1280.54,766.69C1279.1,765.25 1278.95,763.09 1278.95,761.362L1278.95,724.93L1246.27,724.93L1246.27,764.674Z" style="fill-rule:nonzero;"/>
            </g>
            <g transform="matrix(1,0,0,1,-639.711,251.786)">
                <path d="M1368.38,792.178L1368.38,756.322C1368.38,754.882 1368.52,752.146 1369.82,750.562C1370.68,749.554 1371.98,748.978 1373.56,748.978C1375.29,748.978 1376.44,749.842 1376.87,750.418C1377.59,751.426 1378.03,752.722 1378.03,754.306L1378.03,792.178L1409.7,792.178L1409.7,755.17C1409.7,753.73 1409.85,752.002 1411.43,750.418C1412.59,749.266 1413.88,748.978 1414.89,748.978C1416.04,748.978 1417.05,749.41 1417.77,750.13C1419.21,751.57 1419.35,753.586 1419.35,755.17L1419.35,792.178L1451.03,792.178L1451.03,748.69C1451.03,741.202 1448.44,733.858 1443.98,729.25C1440.95,726.226 1435.91,723.058 1427.56,723.058C1423.82,723.058 1418.49,723.778 1414.17,727.378C1411,729.97 1408.55,733.858 1407.4,737.458L1406.54,737.458C1405.1,732.85 1402.36,729.106 1399.34,726.802C1396.46,724.498 1392.28,723.058 1387.38,723.058C1382.63,723.058 1377.31,724.642 1373.7,727.522C1370.97,729.826 1368.66,733.426 1367.37,736.594L1366.36,736.306C1366.94,734.434 1367.51,732.13 1367.51,730.114L1367.51,724.93L1336.7,724.93L1336.7,792.178L1368.38,792.178Z" style="fill-rule:nonzero;"/>
            </g>
            <g transform="matrix(1,0,0,1,-639.711,251.786)">
                <path d="M1510.94,732.994C1504.17,723.922 1496.39,723.058 1492.22,723.058C1483.72,723.058 1477.38,726.082 1472.35,731.122C1466.01,737.458 1461.83,746.962 1461.83,758.914C1461.83,771.154 1466.15,780.226 1471.91,786.13C1477.67,792.034 1484.15,794.05 1490.92,794.05C1495.1,794.05 1503.45,793.186 1511.08,783.682L1512.09,783.682C1511.51,785.41 1510.94,788.002 1510.79,789.874L1510.65,792.178L1542.9,792.178L1542.9,724.93L1510.51,724.93L1510.51,726.802C1510.51,727.954 1510.65,729.97 1511.66,732.562L1510.94,732.994ZM1494.38,758.482C1494.38,755.314 1495.67,752.866 1497.26,751.282C1498.84,749.698 1501,748.978 1503.16,748.978C1505.46,748.978 1507.34,749.842 1508.78,751.138C1510.36,752.578 1511.66,755.026 1511.66,758.194C1511.66,761.218 1510.36,763.81 1508.49,765.682C1506.76,767.266 1504.89,767.842 1502.87,767.842C1500.71,767.842 1498.84,767.122 1497.26,765.538C1495.67,763.954 1494.38,761.794 1494.38,758.482Z" style="fill-rule:nonzero;"/>
            </g>
        </g>
        <g transform="matrix(1,0,0,1,698.777,329.286)">
            <g transform="matrix(1,0,0,1,-624.248,-368.266)">
                <rect x="1273.85" y="922.956" width="114.535" height="114.535" style="fill:#ff9c2b;"/>
            </g>
            <g transform="matrix(1,0,0,1,-684.484,-308.03)">
                <rect x="1273.85" y="922.956" width="114.535" height="114.535" style="fill:#3684f5;"/>
            </g>
            <rect x="649.604" y="614.925" width="54.3" height="54.3" style="fill:#365129;"/>
            <g transform="matrix(1,0,0,1,-625.083,-367.475)">
                <path d="M1314.14,1051.33C1313.14,1049.39 1311.6,1047.58 1309.79,1046.38C1307.59,1044.91 1305.38,1044.37 1302.64,1044.37C1295.42,1044.37 1290.13,1048.99 1290.13,1055.88C1290.13,1059.22 1291.27,1061.29 1293.21,1063.16C1295.22,1065.1 1297.42,1066.04 1299.16,1066.84L1303.17,1068.71C1305.51,1069.79 1307.25,1070.59 1308.52,1071.79C1310.13,1073.26 1310.73,1075 1310.73,1077.01C1310.73,1081.49 1307.86,1085.83 1301.77,1085.83C1299.5,1085.83 1297.29,1085.3 1295.35,1083.36C1294.08,1082.02 1293.01,1080.02 1292.67,1077.68L1287.86,1079.01C1288.46,1081.69 1289.8,1084.76 1292.01,1086.9C1295.08,1089.91 1298.76,1090.52 1301.7,1090.52C1309.73,1090.52 1315.81,1085.03 1315.81,1076.81C1315.81,1073.6 1314.88,1070.99 1312.6,1068.71C1310.73,1066.84 1308.32,1065.64 1305.71,1064.5L1301.43,1062.63C1299.76,1061.89 1298.09,1061.16 1296.75,1059.82C1295.55,1058.68 1295.08,1057.68 1295.08,1055.94C1295.08,1051.8 1298.16,1049.05 1302.57,1049.05C1305.11,1049.05 1306.72,1049.92 1307.59,1050.59C1308.59,1051.39 1309.59,1052.73 1310.19,1053.94L1314.14,1051.33Z" style="fill:#fff;"/>
            </g>
            <g transform="matrix(1,0,0,1,-625.083,-367.475)">
                <path d="M1232.88,1045.65L1227.93,1045.65L1227.93,1090.25L1232.88,1090.25L1232.88,1071.06L1234.15,1069.79L1252.41,1090.25L1259.23,1090.25L1237.69,1066.44L1258.56,1045.65L1251.87,1045.65L1232.88,1064.77L1232.88,1045.65Z" style="fill:#fff;"/>
            </g>
            <g transform="matrix(1,0,0,1,-625.083,-367.475)">
                <path d="M1217.16,991.41L1231.5,1033.92L1243.27,1002.21L1254.25,1033.92L1269.94,991.41L1265.35,991.41L1254.42,1019.82L1243.33,989.351L1231.62,1019.82L1222.38,991.41L1217.16,991.41Z" style="fill:#fff;"/>
            </g>
            <g transform="matrix(1,0,0,1,-625.083,-367.475)">
                <path d="M1347.19,987.349L1347.19,1031.95L1352.14,1031.95L1352.14,1012.43L1353.41,1012.43L1366.98,1031.95L1373,1031.95L1358.82,1012.02C1365.58,1011.56 1370.06,1006.54 1370.06,999.72C1370.06,994.972 1367.78,991.562 1365.18,989.823C1361.83,987.55 1357.35,987.349 1354.34,987.349L1347.19,987.349Z" style="fill:#fff;"/>
            </g>
            <g transform="matrix(1,0,0,1,-625.083,-367.475)">
                <path d="M1301.84,1031.85C1314.74,1031.85 1325.04,1022.02 1325.04,1008.78C1325.04,995.469 1314.68,985.706 1301.84,985.706C1289,985.706 1278.63,995.469 1278.63,1008.78C1278.63,1022.02 1288.93,1031.85 1301.84,1031.85Z" style="fill:#fff;"/>
            </g>
            <g transform="matrix(1,0,0,1,-625.083,-367.475)">
                <path d="M1301.84,990.387C1311.87,990.387 1319.96,998.545 1319.96,1008.78C1319.96,1019.01 1311.87,1027.17 1301.84,1027.17C1291.81,1027.17 1283.71,1019.01 1283.71,1008.78C1283.71,998.545 1291.81,990.387 1301.84,990.387Z" style="fill:#365129;"/>
            </g>
            <g transform="matrix(1,0,0,1,-625.083,-367.475)">
                <path d="M1352.14,992.03L1355.14,992.03C1357.29,992.03 1359.56,992.164 1361.57,993.301C1364.37,994.906 1365.11,997.38 1365.11,999.854C1365.11,1005.07 1361.43,1008.01 1355.28,1008.01L1352.14,1008.01L1352.14,992.03Z" style="fill:#ffb157;"/>
            </g>
            <g transform="matrix(1,0,0,1,-625.083,-367.475)">
                <path d="M1228.67,973.528L1228.67,939.089L1263.44,975.534L1263.44,928.924L1258.49,928.924L1258.49,963.497L1223.72,927.052L1223.72,973.528L1228.67,973.528Z" style="fill:#656565;"/>
            </g>
            <g transform="matrix(1,0,0,1,-625.083,-367.475)">
                <path d="M1313.4,929.241L1290.27,929.241L1290.27,973.845L1313.4,973.845L1313.4,969.164L1295.22,969.164L1295.22,951.844L1312.87,951.844L1312.87,947.163L1295.22,947.163L1295.22,933.922L1313.4,933.922L1313.4,929.241Z" style="fill:#fff;"/>
            </g>
            <g transform="matrix(1,0,0,1,-625.083,-367.475)">
                <path d="M1373.4,933.913L1373.4,929.232L1346.79,929.232L1346.79,933.913L1357.62,933.913L1357.62,973.836L1362.57,973.836L1362.57,933.913L1373.4,933.913Z" style="fill:#fff;"/>
            </g>
        </g>
    </g>
</svg>
