<?xml version="1.0" encoding="UTF-8" standalone="no"?>
<!DOCTYPE svg PUBLIC "-//W3C//DTD SVG 1.1//EN" "http://www.w3.org/Graphics/SVG/1.1/DTD/svg11.dtd">
<svg width="641px" height="175px" version="1.1" xmlns="http://www.w3.org/2000/svg" xmlns:xlink="http://www.w3.org/1999/xlink" xml:space="preserve" xmlns:serif="http://www.serif.com/" style="fill-rule:evenodd;clip-rule:evenodd;stroke-linejoin:round;stroke-miterlimit:2;">
    <g transform="matrix(1,0,0,1,-1227.39,-1764.08)">
        <g transform="matrix(1,0,0,1,746.406,859.881)">
            <g transform="matrix(1,0,0,1,-639.711,251.786)">
                <rect x="1120.7" y="724.93" width="32.688" height="67.248" style="fill:#fff;fill-rule:nonzero;"/>
            </g>
            <g transform="matrix(1,0,0,1,-640.02,317.767)">
                <circle cx="1137.27" cy="635.744" r="16.175" style="fill:#fff;"/>
            </g>
            <g transform="matrix(1,0,0,1,-639.711,251.786)">
                <path d="M1234.6,766.69L1214.3,766.69C1212.71,766.69 1210.41,767.122 1209.11,767.554L1209.11,766.69C1211.27,764.818 1213,762.946 1214.44,760.786L1236.18,728.386L1236.18,724.93L1166.63,724.93L1166.63,750.274L1184.2,750.274C1186.22,750.274 1187.8,750.13 1190.11,749.266L1190.11,749.842C1188.38,751.282 1185.35,754.306 1184.2,756.034L1163.32,787.714L1163.32,792.178L1234.6,792.178L1234.6,766.69Z" style="fill:#fff;fill-rule:nonzero;"/>
            </g>
            <g transform="matrix(1,0,0,1,-639.711,251.786)">
                <path d="M1246.27,764.674C1246.27,772.306 1249.43,778.498 1254.18,783.25C1260.38,789.442 1270.6,794.05 1284.42,794.05C1298.25,794.05 1308.76,789.442 1315.1,782.818C1321.72,775.906 1322.87,768.562 1322.87,763.666L1322.87,724.93L1290.18,724.93L1290.18,761.362C1290.18,763.234 1290.04,765.106 1288.46,766.69C1287.16,767.986 1285.72,768.13 1284.42,768.13C1283.13,768.13 1281.69,767.986 1280.54,766.69C1279.1,765.25 1278.95,763.09 1278.95,761.362L1278.95,724.93L1246.27,724.93L1246.27,764.674Z" style="fill:#fff;fill-rule:nonzero;"/>
            </g>
            <g transform="matrix(1,0,0,1,-639.711,251.786)">
                <path d="M1368.38,792.178L1368.38,756.322C1368.38,754.882 1368.52,752.146 1369.82,750.562C1370.68,749.554 1371.98,748.978 1373.56,748.978C1375.29,748.978 1376.44,749.842 1376.87,750.418C1377.59,751.426 1378.03,752.722 1378.03,754.306L1378.03,792.178L1409.7,792.178L1409.7,755.17C1409.7,753.73 1409.85,752.002 1411.43,750.418C1412.59,749.266 1413.88,748.978 1414.89,748.978C1416.04,748.978 1417.05,749.41 1417.77,750.13C1419.21,751.57 1419.35,753.586 1419.35,755.17L1419.35,792.178L1451.03,792.178L1451.03,748.69C1451.03,741.202 1448.44,733.858 1443.98,729.25C1440.95,726.226 1435.91,723.058 1427.56,723.058C1423.82,723.058 1418.49,723.778 1414.17,727.378C1411,729.97 1408.55,733.858 1407.4,737.458L1406.54,737.458C1405.1,732.85 1402.36,729.106 1399.34,726.802C1396.46,724.498 1392.28,723.058 1387.38,723.058C1382.63,723.058 1377.31,724.642 1373.7,727.522C1370.97,729.826 1368.66,733.426 1367.37,736.594L1366.36,736.306C1366.94,734.434 1367.51,732.13 1367.51,730.114L1367.51,724.93L1336.7,724.93L1336.7,792.178L1368.38,792.178Z" style="fill:#fff;fill-rule:nonzero;"/>
            </g>
            <g transform="matrix(1,0,0,1,-639.711,251.786)">
                <path d="M1510.94,732.994C1504.17,723.922 1496.39,723.058 1492.22,723.058C1483.72,723.058 1477.38,726.082 1472.35,731.122C1466.01,737.458 1461.83,746.962 1461.83,758.914C1461.83,771.154 1466.15,780.226 1471.91,786.13C1477.67,792.034 1484.15,794.05 1490.92,794.05C1495.1,794.05 1503.45,793.186 1511.08,783.682L1512.09,783.682C1511.51,785.41 1510.94,788.002 1510.79,789.874L1510.65,792.178L1542.9,792.178L1542.9,724.93L1510.51,724.93L1510.51,726.802C1510.51,727.954 1510.65,729.97 1511.66,732.562L1510.94,732.994ZM1494.38,758.482C1494.38,755.314 1495.67,752.866 1497.26,751.282C1498.84,749.698 1501,748.978 1503.16,748.978C1505.46,748.978 1507.34,749.842 1508.78,751.138C1510.36,752.578 1511.66,755.026 1511.66,758.194C1511.66,761.218 1510.36,763.81 1508.49,765.682C1506.76,767.266 1504.89,767.842 1502.87,767.842C1500.71,767.842 1498.84,767.122 1497.26,765.538C1495.67,763.954 1494.38,761.794 1494.38,758.482Z" style="fill:#fff;fill-rule:nonzero;"/>
            </g>
        </g>
        <path d="M1753.37,1824.32L1753.37,1878.62L1807.67,1878.62L1807.67,1938.85L1693.13,1938.85L1693.13,1824.32L1753.37,1824.32ZM1792.82,1893.25C1791.82,1891.31 1790.28,1889.5 1788.48,1888.3C1786.27,1886.83 1784.06,1886.29 1781.32,1886.29C1774.1,1886.29 1768.82,1890.9 1768.82,1897.79C1768.82,1901.14 1769.95,1903.21 1771.89,1905.08C1773.9,1907.02 1776.11,1907.96 1777.85,1908.76L1781.86,1910.63C1784.2,1911.7 1785.94,1912.51 1787.21,1913.71C1788.81,1915.18 1789.41,1916.92 1789.41,1918.92C1789.41,1923.4 1786.54,1927.75 1780.45,1927.75C1778.18,1927.75 1775.97,1927.22 1774.03,1925.28C1772.76,1923.94 1771.69,1921.93 1771.36,1919.59L1766.54,1920.93C1767.14,1923.61 1768.48,1926.68 1770.69,1928.82C1773.77,1931.83 1777.44,1932.43 1780.39,1932.43C1788.41,1932.43 1794.5,1926.95 1794.5,1918.72C1794.5,1915.51 1793.56,1912.91 1791.29,1910.63C1789.41,1908.76 1787.01,1907.56 1784.4,1906.42L1780.12,1904.55C1778.45,1903.81 1776.78,1903.08 1775.44,1901.74C1774.23,1900.6 1773.77,1899.6 1773.77,1897.86C1773.77,1893.71 1776.84,1890.97 1781.26,1890.97C1783.8,1890.97 1785.4,1891.84 1786.27,1892.51C1787.27,1893.31 1788.28,1894.65 1788.88,1895.85L1792.82,1893.25ZM1711.56,1887.56L1706.62,1887.56L1706.62,1932.17L1711.56,1932.17L1711.56,1912.98L1712.83,1911.7L1731.09,1932.17L1737.91,1932.17L1716.38,1908.36L1737.24,1887.56L1730.56,1887.56L1711.56,1906.69L1711.56,1887.56ZM1695.84,1833.33L1710.19,1875.84L1721.95,1844.12L1732.93,1875.84L1748.62,1833.33L1744.03,1833.33L1733.1,1861.74L1722.01,1831.27L1710.3,1861.74L1701.06,1833.33L1695.84,1833.33Z" style="fill:#fff;"/>
        <path d="M1753.37,1764.08L1867.9,1764.08L1867.9,1878.62L1753.37,1878.62L1807.67,1878.62L1807.67,1824.32L1753.37,1824.32L1753.37,1764.08ZM1825.87,1829.27L1825.87,1873.87L1830.82,1873.87L1830.82,1854.34L1832.09,1854.34L1845.66,1873.87L1851.68,1873.87L1837.51,1853.94C1844.26,1853.47 1848.74,1848.46 1848.74,1841.64C1848.74,1836.89 1846.47,1833.48 1843.86,1831.74C1840.52,1829.47 1836.04,1829.27 1833.03,1829.27L1825.87,1829.27ZM1830.82,1833.95L1833.83,1833.95C1835.97,1833.95 1838.24,1834.08 1840.25,1835.22C1843.06,1836.82 1843.79,1839.3 1843.79,1841.77C1843.79,1846.99 1840.11,1849.93 1833.96,1849.93L1830.82,1849.93L1830.82,1833.95ZM1792.09,1771.16L1768.95,1771.16L1768.95,1815.76L1792.09,1815.76L1792.09,1811.08L1773.9,1811.08L1773.9,1793.76L1791.55,1793.76L1791.55,1789.08L1773.9,1789.08L1773.9,1775.84L1792.09,1775.84L1792.09,1771.16ZM1852.08,1775.83L1852.08,1771.15L1825.47,1771.15L1825.47,1775.83L1836.3,1775.83L1836.3,1815.75L1841.25,1815.75L1841.25,1775.83L1852.08,1775.83Z" style="fill:#fff;"/>
        <path d="M1780.52,1873.77C1793.43,1873.77 1803.72,1863.93 1803.72,1850.69C1803.72,1837.39 1793.36,1827.62 1780.52,1827.62C1767.68,1827.62 1757.32,1837.39 1757.32,1850.69C1757.32,1863.93 1767.61,1873.77 1780.52,1873.77ZM1780.52,1832.3C1790.55,1832.3 1798.64,1840.46 1798.64,1850.69C1798.64,1860.92 1790.55,1869.08 1780.52,1869.08C1770.49,1869.08 1762.4,1860.92 1762.4,1850.69C1762.4,1840.46 1770.49,1832.3 1780.52,1832.3Z" style="fill:#fff;"/>
        <g transform="matrix(1,0,0,1,478.683,841.917)">
            <path d="M1228.67,973.528L1228.67,939.089L1263.44,975.534L1263.44,928.924L1258.49,928.924L1258.49,963.497L1223.72,927.052L1223.72,973.528L1228.67,973.528Z" style="fill:#fff;"/>
        </g>
    </g>
</svg>
