<?xml version="1.0" standalone="no"?>
<!DOCTYPE svg PUBLIC "-//W3C//DTD SVG 20010904//EN"
 "http://www.w3.org/TR/2001/REC-SVG-20010904/DTD/svg10.dtd">
<svg version="1.0" xmlns="http://www.w3.org/2000/svg"
 width="720.000000pt" height="180.000000pt" viewBox="0 0 720.000000 180.000000"
 preserveAspectRatio="xMidYMid meet">

<g transform="translate(0.000000,250.000000) scale(0.100000,-0.100000)"
fill="#000000" stroke="none">
<path d="M3725 2125 c-156 -34 -285 -114 -372 -230 -71 -95 -103 -177 -110
-285 -7 -105 6 -168 55 -270 44 -90 148 -199 233 -245 l56 -30 -24 -108 c-14
-60 -22 -111 -20 -114 3 -2 63 34 134 81 l128 86 70 0 c364 2 654 305 607 634
-23 154 -110 291 -244 378 -97 64 -146 85 -246 104 -90 17 -187 17 -267 -1z
m289 -85 c100 -25 165 -61 242 -132 198 -185 203 -455 12 -654 -103 -108 -242
-164 -406 -164 l-94 0 -58 -45 -59 -46 14 48 c18 58 19 73 4 73 -27 0 -143 68
-193 114 -111 101 -161 224 -153 369 4 76 10 99 42 165 66 133 202 240 351
276 87 21 207 19 298 -4z"/>
<path d="M4135 1829 c-32 -18 -55 -52 -55 -81 0 -24 -8 -30 -81 -58 -195 -75
-189 -73 -202 -56 -7 8 -29 22 -49 31 -34 13 -42 13 -83 0 -42 -15 -47 -15
-70 2 -16 12 -24 28 -25 46 0 16 -10 38 -25 52 -58 58 -155 -2 -126 -78 15
-39 54 -61 96 -53 55 11 75 -8 68 -64 -10 -87 42 -141 140 -144 45 -1 51 -4
79 -42 25 -35 28 -45 19 -62 -40 -76 32 -163 116 -140 102 27 77 188 -28 188
-33 0 -41 6 -73 49 -35 47 -35 50 -21 77 8 16 15 41 15 55 0 23 10 29 133 76
l132 50 23 -21 c16 -14 37 -21 66 -21 49 0 73 16 93 63 16 39 5 88 -27 117
-23 21 -89 29 -115 14z"/>
<path d="M329 1921 c-88 -28 -119 -83 -119 -214 l0 -94 58 -79 c166 -227 152
-201 152 -274 0 -70 -10 -90 -46 -90 -33 0 -43 20 -46 95 l-3 70 -57 3 -58 3
0 -81 c0 -123 33 -177 123 -201 71 -19 148 16 183 83 9 18 14 61 14 130 l0
103 -100 138 -100 137 0 68 c0 73 10 92 46 92 32 0 38 -15 44 -99 l5 -73 52
-1 c29 -1 53 2 53 6 1 164 0 174 -22 207 -13 18 -34 41 -48 51 -30 22 -95 32
-131 20z"/>
<path d="M6787 1923 c-4 -3 -7 -201 -7 -440 l0 -433 60 0 60 0 2 318 3 317 45
-315 46 -315 92 -3 92 -3 2 411 c1 225 2 422 2 438 1 26 -1 27 -56 30 l-58 3
0 -169 c0 -93 -3 -231 -7 -308 l-7 -139 -42 300 c-24 165 -43 303 -44 308 0 9
-174 10 -183 0z"/>
<path d="M4910 1490 l0 -430 114 0 c101 0 117 2 147 23 60 40 69 72 69 250 0
124 -3 165 -16 195 -13 29 -16 63 -15 153 2 102 0 122 -19 158 -33 66 -67 81
-182 81 l-98 0 0 -430z m180 291 c14 -27 13 -144 -2 -159 -7 -7 -22 -12 -35
-12 -22 0 -23 3 -23 95 0 94 0 95 25 95 14 0 29 -8 35 -19z m14 -287 c14 -5
16 -29 16 -159 0 -167 1 -165 -61 -165 l-29 0 0 165 0 165 29 0 c16 0 36 -3
45 -6z"/>
<path d="M5410 1485 l0 -435 55 0 55 0 0 89 c0 53 4 93 11 96 15 10 17 6 53
-92 l33 -88 63 -3 c48 -2 61 0 58 10 -3 7 -20 54 -37 104 l-33 91 26 28 c15
16 29 38 32 49 3 12 4 130 2 263 l-3 241 -25 27 c-44 47 -71 55 -185 55 l-105
0 0 -435z m198 313 c9 -9 12 -71 12 -219 0 -228 -1 -233 -62 -227 l-33 3 -3
215 c-1 118 0 220 2 227 7 16 68 17 84 1z"/>
<path d="M6020 1918 c0 -6 -120 -794 -125 -825 l-6 -33 59 0 59 0 17 133 c24
181 17 167 87 167 32 0 59 -3 59 -7 0 -5 9 -66 20 -138 11 -71 20 -136 20
-142 0 -9 19 -13 61 -13 l61 0 -6 28 c-7 29 -146 821 -146 828 0 2 -36 4 -80
4 -44 0 -80 -1 -80 -2z m109 -290 c12 -76 21 -142 21 -148 0 -13 -79 -10 -82
3 -2 10 35 288 38 284 1 -1 11 -64 23 -139z"/>
<path d="M6500 1490 l0 -430 55 0 55 0 0 430 0 430 -55 0 -55 0 0 -430z"/>
<path d="M791 1888 c-88 -46 -86 -35 -86 -402 l0 -323 28 -36 c71 -93 190 -90
261 6 20 27 21 42 24 330 3 346 0 368 -68 413 -55 37 -105 40 -159 12z m109
-124 c6 -14 10 -142 10 -290 0 -251 -1 -265 -20 -284 -24 -24 -30 -24 -56 -6
-18 14 -19 29 -19 293 0 153 3 286 7 296 5 11 18 17 38 17 24 0 33 -6 40 -26z"/>
<path d="M1302 1894 c-50 -14 -77 -36 -101 -79 -14 -26 -16 -70 -16 -330 0
-285 1 -302 21 -335 24 -42 74 -77 120 -86 45 -8 121 29 151 75 18 26 23 48
23 98 l0 64 -52 -3 -53 -3 -5 -49 c-6 -61 -33 -85 -68 -60 -22 15 -22 18 -22
298 0 206 3 285 12 294 30 30 78 0 78 -49 0 -29 1 -29 55 -29 l55 0 0 40 c0
111 -95 185 -198 154z"/>
<path d="M1670 1490 l0 -420 55 0 55 0 0 420 0 420 -55 0 -55 0 0 -420z"/>
<path d="M2076 1902 c-2 -4 -9 -41 -15 -82 -6 -41 -20 -136 -31 -210 -11 -74
-25 -164 -30 -200 -5 -36 -17 -110 -25 -165 -9 -55 -18 -119 -22 -142 l-6 -43
56 0 c64 0 60 -7 77 135 20 167 14 155 80 155 l57 0 11 -57 c6 -32 16 -97 22
-145 l12 -88 58 0 57 0 -8 48 c-4 26 -19 112 -33 192 -14 80 -42 240 -62 355
-19 116 -39 220 -44 233 -9 20 -16 22 -79 22 -38 0 -72 -3 -75 -8z m118 -374
l7 -58 -40 0 c-33 0 -41 4 -41 18 1 38 29 212 36 224 8 13 23 -61 38 -184z"/>
<path d="M2540 1485 l0 -425 140 0 140 0 0 55 0 55 -80 0 -80 0 -2 368 -3 367
-57 3 -58 3 0 -426z"/>
</g>
</svg>
