<?xml version="1.0" standalone="no"?>
<!DOCTYPE svg PUBLIC "-//W3C//DTD SVG 20010904//EN"
 "http://www.w3.org/TR/2001/REC-SVG-20010904/DTD/svg10.dtd">
<svg version="1.0" xmlns="http://www.w3.org/2000/svg"
 width="500.000000pt" height="147.000000pt" viewBox="0 0 500.000000 147.000000"
 preserveAspectRatio="xMidYMid meet">

<g transform="translate(0.000000,147.000000) scale(0.100000,-0.100000)"
fill="#FFFFFF" stroke="none">
<path d="M1205 1389 c-88 -13 -279 -63 -392 -104 -196 -71 -319 -164 -376
-284 -25 -53 -31 -79 -35 -160 -6 -143 36 -308 103 -395 54 -70 161 -123 275
-134 l65 -7 42 -80 c42 -79 109 -155 136 -155 11 0 16 21 20 81 10 147 36 163
307 184 304 24 454 72 564 178 231 226 156 669 -138 812 -134 65 -376 92 -571
64z m195 -157 c102 -9 135 -19 210 -62 19 -11 46 -20 60 -20 32 -1 100 -32
121 -56 22 -25 46 -157 31 -162 -7 -2 -12 -23 -12 -46 0 -59 -34 -109 -80
-117 -19 -3 -64 -20 -100 -38 -47 -22 -79 -31 -116 -31 -28 0 -69 -7 -89 -16
-28 -11 -44 -13 -60 -6 -17 8 -26 7 -37 -5 -9 -8 -34 -17 -57 -20 -31 -4 -45
-12 -51 -27 -4 -12 -13 -35 -20 -52 -12 -35 -48 -58 -103 -68 -30 -6 -40 -13
-51 -41 -8 -18 -23 -36 -34 -39 -10 -4 -27 -25 -37 -47 -14 -30 -21 -37 -27
-25 -4 8 -4 26 1 39 11 27 0 37 -42 37 -21 1 -21 1 -3 11 10 6 35 8 57 5 31
-5 43 -2 59 14 33 33 24 40 -55 38 -74 -1 -75 -1 -120 40 -24 23 -49 42 -55
42 -21 0 -10 -57 16 -81 14 -13 33 -37 41 -54 8 -16 29 -42 46 -58 l32 -27
-30 11 c-33 11 -65 37 -65 51 0 5 -18 31 -40 57 -42 50 -50 80 -25 101 12 10
12 15 -5 32 -25 28 -33 87 -25 189 11 154 21 219 33 232 7 6 41 21 75 33 59
20 62 22 70 61 10 54 40 73 129 80 39 3 92 14 117 25 31 12 61 16 91 13 25 -3
92 -9 150 -13z"/>
<path d="M1158 1210 c-9 -6 -43 -15 -75 -21 -103 -18 -132 -29 -144 -52 -12
-22 -12 -22 14 1 22 21 33 23 104 21 61 -2 84 1 103 14 20 14 42 15 154 10 79
-3 142 -11 158 -19 15 -8 37 -14 50 -14 29 0 146 -55 176 -82 16 -15 22 -33
22 -61 0 -22 6 -48 14 -56 22 -24 21 -42 -2 -91 -12 -25 -22 -51 -22 -57 0
-38 56 14 69 64 14 50 14 53 -6 46 -15 -5 -14 -2 3 18 21 22 21 28 10 83 -12
57 -14 60 -57 79 -24 11 -90 42 -145 69 l-101 50 -94 -2 c-52 -2 -121 0 -154
4 -37 4 -67 3 -77 -4z"/>
<path d="M1211 1156 c13 -13 191 -66 201 -60 7 4 23 16 36 27 17 16 19 23 10
29 -13 8 -255 12 -247 4z"/>
<path d="M971 1119 c-17 -16 -21 -28 -16 -49 5 -24 1 -32 -24 -51 -20 -14 -33
-35 -37 -56 -7 -39 -28 -39 -32 1 -3 20 5 34 32 58 27 23 36 40 36 62 l0 31
-20 -33 c-14 -22 -37 -40 -70 -54 -47 -19 -49 -23 -56 -67 -4 -25 -13 -59 -21
-75 -14 -27 -11 -76 5 -76 4 0 32 13 62 28 49 24 57 32 71 77 20 58 45 81 98
90 32 5 42 12 50 36 10 28 9 29 -32 40 l-42 12 35 8 c20 4 40 3 47 -2 8 -7 18
-7 32 0 38 21 91 12 154 -25 34 -20 68 -39 76 -43 31 -16 33 -57 7 -124 -34
-83 -33 -100 10 -158 39 -54 38 -54 83 -38 35 12 35 13 20 74 -10 39 -9 50 10
85 33 64 28 106 -18 150 -22 21 -61 46 -88 56 -26 10 -64 28 -83 41 -31 21
-46 23 -150 23 -104 0 -119 -2 -139 -21z m421 -241 c-3 -74 -8 -98 -18 -98
-22 0 -27 46 -10 97 9 25 16 62 16 82 0 20 4 31 9 26 4 -6 6 -54 3 -107z"/>
<path d="M1462 1097 l-39 -33 27 -31 c15 -17 32 -39 38 -49 9 -16 14 -17 49
-5 43 14 78 12 75 -4 -1 -5 -27 -11 -57 -13 -53 -3 -55 -4 -55 -31 0 -16 -10
-37 -25 -51 -42 -39 -23 -143 28 -155 30 -8 90 8 142 38 31 18 41 30 46 57 3
19 13 50 23 69 17 33 17 34 -3 55 l-21 20 0 -30 c0 -33 -14 -48 -93 -102 -40
-29 -48 -31 -53 -17 -9 22 6 35 69 60 51 21 52 22 55 66 2 34 -2 52 -18 72
-20 25 -27 27 -95 27 -72 0 -98 11 -78 31 12 12 136 -16 170 -37 12 -7 24 -23
28 -34 9 -30 25 -24 25 9 0 22 -9 37 -34 56 -30 23 -130 65 -155 65 -5 0 -27
-15 -49 -33z"/>
<path d="M1106 1083 c-9 -9 -38 -75 -34 -78 2 -1 18 -7 36 -15 18 -7 39 -22
47 -34 19 -26 19 -89 0 -125 -15 -29 -22 -32 -128 -47 -28 -4 -60 -16 -74 -29
-23 -19 -25 -26 -19 -60 17 -88 106 -125 159 -65 25 28 77 43 77 22 0 -14 -74
-79 -97 -86 -47 -15 -128 44 -156 114 -28 67 5 100 122 126 42 9 82 21 89 27
6 5 12 31 12 56 0 66 -27 91 -99 91 -74 0 -104 -18 -118 -73 -13 -49 -55 -90
-105 -102 -30 -8 -68 -40 -68 -58 1 -59 22 -95 92 -160 l73 -69 86 5 c113 7
151 24 187 83 28 44 29 49 16 80 -8 18 -14 43 -14 54 0 21 -1 21 -32 -3 -53
-38 -125 -77 -132 -70 -15 15 -3 30 47 55 28 16 71 45 95 65 35 32 45 47 54
93 14 71 6 106 -32 125 -30 15 -41 45 -17 45 26 0 77 -40 83 -67 5 -18 -1 -60
-14 -113 -24 -93 -28 -151 -12 -181 13 -24 66 -26 92 -3 17 16 16 18 -12 51
-36 41 -37 59 -5 151 22 63 23 76 13 101 -22 51 -183 122 -212 94z m-36 -162
c0 -5 -18 -20 -40 -33 -85 -50 -190 -139 -205 -174 -8 -20 -19 -33 -25 -29
-20 12 -9 34 36 72 52 42 93 83 140 137 23 27 39 36 63 36 17 0 31 -4 31 -9z"/>
<path d="M2150 1298 c-55 -28 -80 -73 -80 -144 0 -71 37 -119 144 -188 83 -54
96 -68 96 -110 0 -66 -72 -87 -145 -41 -48 29 -67 31 -88 7 -25 -28 -21 -48
19 -80 44 -37 95 -52 170 -52 108 0 163 63 164 185 0 82 -21 113 -112 166
-100 58 -128 85 -128 124 0 60 48 79 128 51 45 -16 55 -11 67 36 6 23 2 29
-27 44 -18 9 -62 19 -98 21 -54 4 -73 0 -110 -19z"/>
<path d="M2604 1309 c-44 -13 -80 -53 -101 -112 -25 -74 -25 -311 0 -383 31
-90 84 -124 193 -124 159 0 206 72 206 315 0 246 -48 317 -212 314 -30 0 -69
-5 -86 -10z m145 -78 c20 -13 30 -87 30 -226 1 -134 -9 -193 -35 -212 -10 -7
-39 -13 -66 -13 -43 0 -48 2 -55 28 -5 15 -8 102 -8 194 0 154 2 169 21 195
13 17 34 30 55 34 19 4 36 7 39 8 3 0 11 -3 19 -8z"/>
<path d="M3060 1298 c-71 -36 -92 -89 -98 -245 -11 -279 39 -362 215 -363 103
0 123 10 123 60 l0 40 -84 0 c-126 0 -130 8 -124 243 3 128 5 148 23 167 18
20 26 22 91 16 80 -6 93 1 97 50 2 24 -3 30 -33 41 -60 20 -160 16 -210 -9z"/>
<path d="M3722 1312 c-14 -9 -116 -587 -108 -609 4 -8 24 -13 55 -13 44 0 51
3 56 23 5 25 25 148 25 160 0 4 26 7 59 7 l59 0 12 -82 c7 -46 17 -89 23 -95
5 -7 29 -13 53 -13 34 0 44 4 44 16 0 68 -104 579 -122 601 -12 15 -135 18
-156 5z m107 -229 l18 -103 -39 0 -40 0 6 48 c15 100 29 177 33 167 1 -5 11
-56 22 -112z"/>
<path d="M4055 1298 c-3 -13 -4 -151 -3 -308 l3 -285 150 0 150 0 3 39 c2 24
-2 42 -10 47 -7 5 -49 9 -94 9 l-81 0 -7 229 c-4 126 -11 242 -15 258 -6 24
-13 28 -49 31 -36 3 -42 0 -47 -20z"/>
<path d="M3361 1296 c-19 -23 -9 -70 17 -81 22 -10 22 -12 22 -210 0 -198 0
-200 -22 -210 -25 -11 -33 -34 -24 -71 6 -23 9 -24 101 -24 85 0 95 2 105 20
18 34 9 74 -17 78 -22 3 -23 7 -23 125 0 67 -3 158 -6 203 -6 76 -5 81 14 86
25 7 39 62 22 83 -17 21 -172 21 -189 1z"/>
<path d="M2097 583 c-4 -3 -7 -118 -7 -255 l0 -248 69 0 c38 0 81 4 95 10 39
15 66 66 66 127 0 66 -15 98 -53 116 -28 14 -28 15 -8 22 30 9 51 56 51 113 0
61 -25 97 -78 112 -42 11 -125 13 -135 3z m161 -59 c24 -28 28 -64 11 -113
-13 -37 -41 -51 -100 -51 l-39 0 0 101 0 102 53 -7 c38 -5 58 -13 75 -32z m-1
-218 c25 -22 28 -31 28 -86 0 -55 -3 -64 -28 -86 -22 -18 -40 -24 -78 -24
l-49 0 0 110 0 110 49 0 c38 0 56 -6 78 -24z"/>
<path d="M2408 584 c-5 -4 -8 -119 -8 -256 0 -241 1 -248 20 -248 19 0 20 7
20 111 l0 110 32 -3 c31 -3 34 -8 78 -110 34 -82 49 -108 64 -108 21 0 23 -6
-36 128 l-42 95 26 21 c37 31 48 58 48 120 0 67 -15 103 -52 122 -32 17 -139
30 -150 18z m127 -40 c23 -9 45 -57 45 -99 0 -72 -41 -115 -111 -115 l-29 0 0
110 0 110 39 0 c22 0 47 -3 56 -6z"/>
<path d="M2765 578 c-7 -22 -115 -478 -115 -488 0 -6 7 -10 15 -10 14 0 24 27
45 128 l12 52 63 0 63 0 22 -90 c18 -71 26 -90 40 -90 16 0 12 23 -37 217 -30
120 -58 235 -64 256 -10 36 -35 51 -44 25z m75 -275 c0 -2 -25 -3 -56 -3 -41
0 -55 3 -51 13 2 7 15 59 28 116 l23 104 28 -114 c15 -63 27 -115 28 -116z"/>
<path d="M2980 335 c0 -220 2 -255 15 -255 13 0 15 35 15 255 0 220 -2 255
-15 255 -13 0 -15 -35 -15 -255z"/>
<path d="M3120 336 c0 -219 2 -256 15 -256 12 0 15 34 17 221 l3 221 93 -221
c76 -179 97 -221 113 -221 18 0 19 10 19 255 0 219 -2 255 -15 255 -12 0 -15
-33 -17 -219 l-3 -219 -91 217 c-75 178 -95 217 -113 219 l-21 3 0 -255z"/>
<path d="M3620 335 l0 -255 90 0 c72 0 90 3 90 15 0 11 -17 15 -72 17 l-73 3
-3 238 c-2 201 -5 237 -17 237 -13 0 -15 -36 -15 -255z"/>
<path d="M3925 578 c-7 -22 -115 -478 -115 -488 0 -6 7 -10 15 -10 14 0 24 27
45 128 l12 52 63 0 63 0 22 -90 c18 -71 26 -90 40 -90 16 0 12 23 -37 217 -30
120 -58 235 -64 256 -10 36 -35 51 -44 25z m75 -275 c0 -2 -25 -3 -56 -3 -41
0 -55 3 -51 13 2 7 15 59 28 116 l23 104 28 -114 c15 -63 27 -115 28 -116z"/>
<path d="M4140 336 l0 -256 70 0 c43 0 82 6 99 15 32 16 61 77 61 126 0 45
-26 97 -54 110 l-25 12 29 27 c35 32 47 87 31 140 -15 52 -48 71 -137 77 l-74
6 0 -257z m122 214 c45 -13 58 -34 58 -95 0 -65 -31 -95 -100 -95 l-50 0 0 93
c0 52 3 97 7 100 9 10 42 8 85 -3z m21 -232 c37 -19 46 -40 47 -101 0 -48 -4
-62 -25 -82 -20 -21 -34 -25 -80 -25 l-55 0 0 110 0 110 46 0 c25 0 55 -5 67
-12z"/>
</g>
</svg>
