<?xml version="1.0" standalone="no"?>
<!DOCTYPE svg PUBLIC "-//W3C//DTD SVG 20010904//EN"
 "http://www.w3.org/TR/2001/REC-SVG-20010904/DTD/svg10.dtd">
<svg version="1.0" xmlns="http://www.w3.org/2000/svg"
 width="760.000000pt" height="286.000000pt" viewBox="0 0 760.000000 286.000000"
 preserveAspectRatio="xMidYMid meet">

<g transform="translate(0.000000,286.000000) scale(0.100000,-0.100000)"
fill="#000000" stroke="none">
<path d="M0 1430 l0 -1430 3800 0 3800 0 0 1430 0 1430 -3800 0 -3800 0 0
-1430z m4156 695 c256 -49 452 -244 486 -484 47 -326 -248 -631 -610 -631
l-67 0 -128 -86 c-71 -47 -131 -83 -134 -81 -2 3 7 54 20 114 l24 108 -36 19
c-270 142 -384 451 -261 711 119 250 410 387 706 330z m-3537 -223 c54 -39 66
-68 71 -168 l5 -94 -57 0 -58 0 0 68 c0 78 -14 106 -50 100 -34 -4 -52 -43
-47 -103 3 -45 13 -64 105 -191 l102 -141 0 -104 c0 -118 -14 -153 -72 -189
-40 -24 -126 -27 -168 -5 -55 29 -74 69 -78 172 l-4 93 56 0 56 0 0 -57 c0
-69 17 -107 48 -111 40 -6 52 14 52 88 l0 67 -105 144 -105 144 0 89 c0 129
33 189 119 217 36 11 101 2 130 -19z m6511 21 c1 -5 20 -143 44 -308 l42 -300
7 145 c4 80 7 218 7 308 l0 163 58 -3 57 -3 -1 -32 c0 -18 -1 -215 -2 -438
l-2 -406 -92 3 -92 3 -46 315 -45 315 -3 -317 -2 -318 -60 0 -60 0 0 433 c0
239 3 437 7 440 9 10 183 9 183 0z m-1833 -23 c18 -10 42 -38 53 -61 19 -36
21 -56 19 -158 -1 -90 2 -124 15 -153 13 -30 16 -71 16 -195 0 -178 -9 -210
-69 -250 -30 -21 -46 -23 -147 -23 l-114 0 0 430 0 430 98 0 c79 0 103 -4 129
-20z m511 6 c15 -8 38 -26 52 -41 l25 -27 3 -241 c2 -133 1 -251 -2 -263 -3
-11 -17 -33 -32 -49 l-26 -28 33 -91 c17 -50 34 -97 37 -104 3 -10 -10 -12
-58 -10 l-63 3 -33 88 c-36 98 -38 102 -53 92 -7 -3 -11 -43 -11 -96 l0 -89
-55 0 -55 0 0 435 0 435 105 0 c72 0 115 -5 133 -14z m532 10 c0 -7 139 -799
146 -828 l6 -28 -61 0 c-42 0 -61 4 -61 13 0 6 -9 71 -20 142 -11 72 -20 133
-20 138 0 4 -27 7 -59 7 -70 0 -63 14 -87 -167 l-17 -133 -59 0 -59 0 6 33 c5
31 125 819 125 825 0 1 36 2 80 2 44 0 80 -2 80 -4z m430 -426 l0 -430 -55 0
-55 0 0 430 0 430 55 0 55 0 0 -430z m-5664 389 c69 -42 74 -65 74 -395 0
-321 -3 -339 -60 -387 -90 -76 -238 -21 -255 95 -3 24 -5 172 -3 330 3 325 2
321 89 366 53 28 101 25 155 -9z m832 -391 l2 -418 -55 0 -55 0 0 413 c0 228
3 417 7 421 4 4 28 6 53 4 l45 -3 3 -417z m451 400 c5 -13 16 -66 25 -118 17
-100 55 -323 82 -475 8 -49 19 -109 25 -132 5 -23 9 -56 9 -72 0 -31 0 -31
-55 -31 -39 0 -55 4 -55 13 0 16 -28 211 -36 250 -5 26 -8 27 -64 27 -67 0
-60 12 -80 -155 -17 -142 -13 -135 -77 -135 l-56 0 7 43 c3 23 13 85 20 137 8
52 29 187 46 300 17 113 35 239 41 280 6 41 13 78 15 82 3 5 37 8 75 8 63 0
70 -2 78 -22z m428 -348 l2 -365 81 -3 80 -3 0 -54 0 -55 -140 0 -140 0 0 425
0 426 58 -3 57 -3 2 -365z m-1217 330 c38 -27 60 -74 60 -130 l0 -40 -55 0
c-54 0 -55 0 -55 29 0 49 -48 79 -78 49 -9 -9 -12 -88 -12 -294 0 -280 0 -283
22 -298 35 -25 62 -1 68 60 l5 49 53 3 52 3 0 -64 c0 -50 -5 -72 -23 -98 -29
-45 -106 -83 -150 -75 -46 9 -94 41 -117 78 -19 31 -20 51 -20 344 0 306 0
312 23 344 49 72 155 91 227 40z"/>
<path d="M3876 2044 c-151 -36 -289 -146 -353 -280 -37 -77 -38 -82 -38 -190
0 -108 1 -112 39 -190 48 -98 134 -185 229 -231 36 -18 70 -33 76 -33 15 0 14
-15 -4 -74 -11 -35 -11 -46 -2 -39 6 5 33 26 58 46 46 37 47 37 140 37 52 0
119 7 149 15 273 72 449 334 386 571 -33 125 -136 253 -253 317 -114 61 -294
83 -427 51z m534 -229 c32 -29 43 -78 27 -117 -20 -47 -44 -63 -93 -63 -29 0
-50 7 -66 21 l-23 21 -132 -50 c-123 -47 -133 -53 -133 -76 0 -14 -7 -39 -15
-55 -14 -27 -14 -30 21 -77 32 -43 40 -49 73 -49 67 0 113 -72 86 -136 -16
-39 -41 -54 -90 -54 -70 0 -117 80 -84 142 9 17 6 27 -19 62 -28 38 -34 41
-79 42 -97 3 -151 60 -140 148 4 31 1 42 -15 56 -17 14 -27 15 -50 6 -36 -13
-77 7 -96 47 -36 76 64 142 123 82 15 -14 25 -36 25 -52 1 -18 9 -34 25 -46
23 -17 28 -17 70 -2 41 13 49 13 83 0 20 -9 42 -23 49 -32 11 -14 26 -11 145
35 115 43 133 53 136 74 5 36 24 68 52 84 31 18 95 12 120 -11z"/>
<path d="M5190 1705 c0 -92 1 -95 23 -95 37 0 47 19 47 88 0 75 -12 102 -45
102 -25 0 -25 -1 -25 -95z"/>
<path d="M5190 1335 l0 -165 29 0 c62 0 61 -2 61 165 0 167 1 165 -61 165
l-29 0 0 -165z"/>
<path d="M5684 1797 c-2 -7 -3 -109 -2 -227 l3 -215 33 -3 c61 -6 62 -1 62
227 0 148 -3 210 -12 219 -16 16 -77 15 -84 -1z"/>
<path d="M6245 1630 c-10 -77 -18 -143 -17 -147 3 -13 82 -16 82 -3 0 15 -42
284 -44 287 -2 2 -11 -60 -21 -137z"/>
<path d="M980 1764 c-15 -39 -13 -533 3 -564 16 -32 41 -36 66 -11 20 20 21
32 21 292 0 167 -4 278 -10 290 -16 30 -68 26 -80 -7z"/>
<path d="M2316 1712 c-7 -12 -35 -186 -36 -224 0 -14 8 -18 41 -18 l40 0 -7
58 c-15 123 -30 197 -38 184z"/>
</g>
</svg>
