<svg id="ecKjJWC3yH81" xmlns="http://www.w3.org/2000/svg" xmlns:xlink="http://www.w3.org/1999/xlink" viewBox="0 0 800 600" shape-rendering="geometricPrecision" text-rendering="geometricPrecision"><g><line x1="50.3" y1="513.7" x2="759.5" y2="513.7" fill="none" stroke="#5d5c74" stroke-width="4" stroke-miterlimit="10"/><path d="M626.4,232.3c23.9,74.6-11.4,131.2-103.2,131.2-97,0-125.1-56.4-102.2-131.2c14.5-47.2,9-98.5,23.7-122c20.8-33.1,40.1-46,78.4-46c36.1,0,59.5,11.5,74.3,43.7c12.2,26.2,13.5,75.9,29,124.3Z" fill="#972dbd" stroke="#5d5c74" stroke-width="3" stroke-miterlimit="10"/><path d="M522.5,363.4c-45.8,0-78-12.2-95.9-36.4-17.1-23.2-19.7-56.5-7.5-96.5c6.7-22,9.1-45,11.3-65.4c2.5-23.7,4.6-44.1,12.6-56.9c21.9-34.9,42-46.6,79.5-46.6c38.6,0,61.1,13.3,75.5,44.5c6.2,13.5,9.6,32.8,13.4,55.2c3.7,21.4,7.9,45.6,15.5,69.3c12.1,37.8,9.3,70.5-8.2,94.4-18.3,25.1-51.6,38.4-96.2,38.4Zm0-299.3c-36.5,0-56,11.5-77.4,45.4-7.7,12.3-9.8,32.4-12.2,55.8-2.1,20.5-4.6,43.7-11.4,65.9-12,39.1-9.5,71.7,7.1,94.2c17.3,23.5,48.9,35.3,93.8,35.3c43.8,0,76.3-12.9,94.2-37.4c17-23.2,19.7-55.1,7.8-92.1-7.7-23.9-11.9-48.2-15.6-69.6-3.9-22.2-7.2-41.3-13.2-54.5-13.8-30.1-35.7-43-73.1-43Z" fill="#5c5c74"/><path d="M392,406.9c0-54.9,59.2-99.5,132.2-99.5s132.2,44.5,132.2,99.5" fill="#344258" stroke="#5d5c74" stroke-width="4" stroke-miterlimit="10"/><path d="M553.8,156c-28.4,0-52.9-11.6-64.6-28.4-4.7,18.9-18,33-34,35c0,17.7,0,45.8,0,61.2c0,23.6,14.8,53,37.9,67.8v23.6c0,13.2,8.3,31.7,30.2,31.7c21.3,0,30.6-18.5,30.6-31.7v-22c24.7-14.2,38-45,38-69.5c0-23.6,0-77.2,0-77.2c0-.2,0-.3,0-.5-4.1,8-14,10-38.1,10Z" fill="#fbd7ce"/><path d="M523.1,347.5c-23.1,0-31.4-19.7-31.4-33v-23c-22-14.4-37.9-43.1-37.9-68.5v-61.2c0-.6.5-1.2,1.1-1.3c15.3-1.9,28.2-15.2,32.9-34c.1-.5.5-.9,1-1s1,.1,1.3.5c12,17.1,36.3,27.8,63.5,27.8c24.7,0,33.3-2.1,36.9-9.1.3-.5.9-.8,1.4-.7.6.1,1,.6,1,1.2v.5v77.2c0,23.1-11.9,54.8-38,70.2v21.2c.1,13.9-9.8,33.2-31.8,33.2ZM456.3,162.9v60.1c0,24.8,15.7,52.9,37.3,66.7.4.2.6.6.6,1.1v23.6c0,12.2,7.7,30.4,28.9,30.4c20.2,0,29.3-17.8,29.3-30.4v-22c0-.5.2-.9.6-1.1c24.5-14.1,37.3-45.1,37.3-68.4v-73.7c-5.8,6-17.2,7.1-36.8,7.1-26.9,0-51.1-10.2-64.1-26.7-5.2,18.1-17.9,30.9-33.1,33.3Z" fill="#5c5c74"/><g><path d="M537.5,248.2c0,0-5.9,6.8-13.2,6.8s-13.2-6.8-13.2-6.8s5.9.8,13.2.8s13.2-.8,13.2-.8Z" fill="#5c5c74"/></g><g><path d="M525,229.8c-.1,0-.2,0-.3,0-2.1-.1-3.9-.9-4.9-2.3-.8-1.1-1-2.5-.6-3.9l1.2.4c-.3,1-.2,1.9.4,2.7.8,1.1,2.2,1.8,3.9,1.8c2,0,3.8-.7,4.7-1.9.6-.8.6-1.8.2-2.9l1.2-.5c.8,1.9.3,3.3-.3,4.1-1,1.5-3.2,2.5-5.5,2.5Z" fill="#5c5c74"/></g><path d="M670.3,378.6v156.6c0,8.1-6.6,14.7-14.7,14.7h-265.4c-8.1,0-14.7-6.6-14.7-14.7v-156.8c0-8.1,6.6-14.7,14.7-14.7h265.4c8.1.2,14.7,6.8,14.7,14.9" fill="#e4e6e9"/><path d="M670.3,518.1v17.2c0,8.1-6.6,14.7-14.7,14.7h-265.4c-8.1,0-14.7-6.6-14.7-14.7v-17.3l294.8.1Z" fill="#cdcfd2"/><path d="M375.5,460c-1.7,0-3.1-1.4-3.1-3.1v-31c0-1.7,1.6-2.9,3.1-2.9c1.6,0,2.9,1.4,2.9,2.9v31c.2,1.7-1.2,3.1-2.9,3.1" fill="#5d5c74"/><path d="M655.6,553.2h-265.4c-9.9,0-17.8-8-17.8-17.8v-59.4c0-1.7,1.6-2.9,3.1-2.9c1.6,0,2.9,1.4,2.9,2.9v59.4c0,6.4,5.2,11.8,11.6,11.8h265.6c6.4,0,11.6-5.2,11.6-11.8v-156.8c0-6.4-5.2-11.8-11.6-11.8h-265.4c-6.4,0-11.6,5.2-11.6,11.8v30.8c0,1.7-1.4,3.1-3.1,3.1s-3.1-1.4-3.1-3.1v-30.8c0-9.9,8-17.8,17.8-17.8h265.4c9.9,0,17.8,8,17.8,17.8v156.6c0,9.9-7.9,18-17.8,18" fill="#5d5c74"/><path d="M225,530.6h43v-64.1h-43v64.1Z" fill="#dfe1e2"/><path d="M228.1,527.5h36.9v-57.9h-36.9v57.9Zm40,6.2h-43c-1.7,0-3.1-1.4-3.1-3.1v-64.1c0-1.7,1.4-3.1,3.1-3.1h43c1.7,0,3.1,1.4,3.1,3.1v64.1c-.2,1.7-1.4,3.1-3.1,3.1Z" fill="#5d5c74"/><path d="M268.1,522.1c-1.7,0-3.1-1.4-3.1-3.1s1.4-3.1,3.1-3.1c9.5,0,17.3-7.8,17.3-17.3s-7.8-17.3-17.3-17.3c-1.7,0-3.1-1.4-3.1-3.1s1.4-3.1,3.1-3.1c13,0,23.4,10.6,23.4,23.6c0,12.9-10.6,23.4-23.4,23.4m-21.5-63.6c-.5,0-1-.2-1.4-.7-.5-.7-5.5-7.6-4.5-12.3.5-2.1,1.7-3.6,3.1-5.2c1.6-1.9,3.1-3.6,3.3-6.6.2-1,1-1.7,2.1-1.7c1,.2,1.7,1,1.7,2.1-.3,4.2-2.4,6.6-4.2,8.7-1,1.2-2.1,2.4-2.3,3.6-.5,2.4,2.4,7.3,3.8,9.2.7.9.5,1.9-.3,2.6-.6.2-.9.3-1.3.3M236,457.2c-.2,0-.3,0-.5-.2-.3-.3-3.8-2.6-4.2-5-.2-1,.2-2.1.7-2.9.5-1.2.9-2.3.5-3.6-.2-.5.2-1,.7-1c.5-.2,1,.2,1,.7.5,2.1-.2,3.5-.5,4.7-.3.7-.5,1.4-.5,2.1.2,1,2.1,2.8,3.3,3.8.3.3.5.9.2,1.2-.1,0-.3.2-.7.2m21.2.3c-.3,0-.7-.2-.9-.7s-1.6-4.5-.3-6.6c.5-.9,1.4-1.6,2.3-2.1c1-.7,1.9-1.2,2.6-2.6.2-.5.7-.7,1.2-.3.3.2.7.7.5,1.2-.9,1.9-2.3,2.8-3.3,3.5-.7.5-1.4.9-1.6,1.4-.5,1,0,3.5.5,5c.2.5,0,1-.5,1.2h-.5" fill="#5d5c74"/><path d="M239.4,517.3c-1.5,0-2.7-1.1-2.7-2.7v-20c0-1.5,1.1-2.7,2.7-2.7c1.5,0,2.7,1.1,2.7,2.7v20c0,1.6-1.2,2.7-2.7,2.7c0,.2,0,.2,0,0m0,22.8c-1.5,0-2.7-1.1-2.7-2.7v-10.1c0-1.5,1.1-2.7,2.7-2.7c1.5,0,2.7,1.1,2.7,2.7v10.1c0,1.4-1.2,2.7-2.7,2.7" fill="#fff"/><path d="M229.1,268.6L179,318.8c0,0-11.6-10.7-13.3-19.9c0,0-8.3-21.2,10.6-37.9c0,0,11-13,34.1-7.4c0,0,12.6,4.2,18.7,15Z" fill="#cdcfd2"/><path d="M109.9,233.2c.1-.5.5-.8.9-1s.9-.2,1.4,0l59.9,26.3c.2.1.4.2.6.4c15.5-14.2,39.6-13.9,54.6,1.1c2.3,2.3,4.3,4.9,5.9,7.6v0c.7.8.7,2-.1,2.7l-4.2,4.2h-5.7l5.8-5.8c-1.3-2-2.9-4-4.6-5.8-13.8-13.8-36.3-13.8-50.2,0-9.7,9.7-12.6,23.8-8.6,36.1c0,0,0,0,0,0c.2.7.1,1.4-.5,1.9-.8.8-2,.8-2.8,0-.1-.1-.2-.3-.3-.4c0,0-.1,0-.1-.1c0,0,0-.1,0-.1c0-.1-.1-.2-.1-.3-4.2-13.1-1.4-27.9,8.3-38.6l-57.6-25.3-23.3,74.2h-3.6l24.3-77.1Z" fill="#5d5c74"/><path d="M112.8,532.3c-.5,0-1-.2-1.3-.6L72.1,483.3h4.4l37.1,45.6h64.2c.9,0,1.7.8,1.7,1.7v9c0,.9-.8,1.7-1.7,1.7L40.3,542.7c0,0,0,0,0,0-.9,0-1.7-.8-1.7-1.7s.7-1.7,1.7-1.7l135.8-1.4v-5.6h-63.3Z" fill="#5d5c74"/><path d="M181.8,321.6c-.8.8-2.1.8-2.8,0-.8-.8-.8-2.1,0-2.8l10.3-10.3v5.7l-7.5,7.4Z" fill="#5d5c74"/><path d="M220.4,308.9c-7.4,7.4-19.1,7.7-27,1.1l28-28c6.7,7.8,6.4,19.5-1,26.9Z" fill="#edeeef"/><path d="M228.9,274.5h-5.7l-34,34v5.7l1.3-1.3c9.4,8.2,23.7,7.9,32.6-1.1c8.9-8.9,9.3-23.2,1.1-32.6l4.7-4.7Zm-7.4,7.5c6.6,7.8,6.3,19.6-1.1,27s-19.1,7.7-27,1.1L221.5,282Z" fill="#5d5c74"/><path d="M50.2,473.7C39,473.7,30,464.6,30,453.5c0-11.2,9.1-20.2,20.2-20.2c11.2,0,20.2,9.1,20.2,20.2c0,11.2-9.1,20.2-20.2,20.2Z" fill="#e4e6e9"/><path d="M72.2,483.3h4.4L66.4,470.7c4.6-4.3,7.5-10.4,7.5-17.2c0-10.1-6.4-18.7-15.3-22.1l2.8-8.9h-3.6l-2.5,7.9c-1.6-.4-3.4-.6-5.1-.6-13,0-23.6,10.6-23.6,23.6s10.6,23.6,23.6,23.6c5,0,9.7-1.6,13.5-4.3l8.5,10.6Zm-22-9.6C39,473.7,30,464.6,30,453.5c0-11.2,9.1-20.2,20.2-20.2c11.2,0,20.2,9.1,20.2,20.2c0,11.2-9.1,20.2-20.2,20.2Z" fill="#5d5c74"/><rect width="135.8" height="7" rx="0" ry="0" transform="translate(40.3 532.3)" fill="#cdcfd2"/><line x1="56.4" y1="432.3" x2="88.2" y2="307.8" fill="none" stroke="#5d5c74" stroke-width="3" stroke-miterlimit="10"/><g><path d="M475.8,189.7c-.6,0-1.3-.2-1.8-.7-1.1-1-1.1-2.6-.1-3.7c3.3-3.5,7.9-5.3,12.3-4.9c3.7.3,6.8,2.2,8.7,5.1.8,1.2.4,2.8-.8,3.6s-2.8.4-3.6-.8c-1-1.6-2.7-2.5-4.7-2.7-2.8-.3-5.8,1-8,3.3-.6.5-1.3.8-2,.8Z" fill="#5c5c74"/></g><g><path d="M574.4,189.7c-.7,0-1.4-.3-1.9-.8-2.2-2.3-5.4-3.6-8.6-3.4-2.6.1-4.8,1.2-6.2,3-.9,1.2-2.5,1.4-3.7.5-1.1-.9-1.4-2.5-.5-3.7c2.3-3,5.9-4.8,10-5.1c4.8-.3,9.4,1.6,12.7,5c1,1,1,2.7-.1,3.7-.4.5-1,.8-1.7.8Z" fill="#5c5c74"/></g><path d="M593.6,24.1c-1.3,1.1-4.9,1.8-4.9,1.8s-7.4-3.3-7.4-7.4s3.3-7.4,7.4-7.4s7.4,3.3,7.4,7.4c0,1.3-.3,2.5-.9,3.5" fill="none" stroke="#972dbd" stroke-width="3" stroke-miterlimit="10"/><path d="M927.6,36c-1.2,1-2.8,1.7-4.5,1.7-3.8,0-6.9-3.1-6.9-6.9s3.1-6.9,6.9-6.9s6.9,3.1,6.9,6.9c0,1.2-.3,2.3-.8,3.2" fill="none" stroke="#4fc1eb" stroke-width="3" stroke-miterlimit="10"/><path d="M723.9,-25.7c-2.8,2.4-6.5,3.9-10.5,3.9-8.9,0-16.1-7.2-16.1-16.1s7.2-16.1,16.1-16.1s16.1,7.2,16.1,16.1c0,2.7-.7,5.3-1.9,7.6" fill="none" stroke="#4fc1eb" stroke-width="3" stroke-miterlimit="10"/><path d="M738.4,128.4c-.9.8-2.2,1.3-3.5,1.3-3,0-5.4-2.4-5.4-5.4s2.4-5.4,5.4-5.4s5.4,5.4,5.4,5.4-.2,1.8-.6,2.5" fill="none" stroke="#972dbd" stroke-width="3" stroke-miterlimit="10"/><path d="M776.6,72.4c-1.9,1.6-7,2.6-7,2.6s-10.7-4.8-10.7-10.7s4.8-10.7,10.7-10.7s10.7,4.8,10.7,10.7c0,1.8-.5,3.5-1.3,5" fill="none" stroke="#0a2342" stroke-width="3" stroke-miterlimit="10"/><path d="M422.9,-49.9c-.9.8-2.2,1.3-3.5,1.3-3,0-5.4-2.4-5.4-5.4s2.4-5.4,5.4-5.4s5.4,2.4,5.4,5.4c0,.9-.2,1.8-.6,2.5" fill="none" stroke="#f39200" stroke-width="3" stroke-miterlimit="10"/><path d="M893.7,176.5c-.9.8-2.2,1.3-3.5,1.3-3,0-5.4-2.4-5.4-5.4s2.4-5.4,5.4-5.4s5.4,2.4,5.4,5.4c0,.9-.2,1.8-.6,2.5" fill="none" stroke="#f39200" stroke-width="3" stroke-miterlimit="10"/></g><polygon points="0,-54.7 47.37159,-27.35 47.37159,27.35 0,54.7 -47.37159,27.35 -47.37159,-27.35 0,-54.7" transform="matrix(.893966 0 0 0.808044 517.374937 462.80281)" fill="none" fill-rule="evenodd" stroke="#972dbd" stroke-width="3"/></svg>
